<svg
   width="48"
   height="48"
   viewBox="0 0 48 48"
   xmlns="http://www.w3.org/2000/svg">
   <path
      style="color:#000000;fill:#000000;stroke-width:1;"
      d="m 9.5737267,1.9999998 c -1.1602212,0 -2.1207357,0.9529584 -2.1207357,2.1020099 V 37.13045 c 0,1.149051 0.9605145,2.100319 2.1207357,2.100319 H 31.655332 c 1.160223,0 2.122447,-0.951268 2.122447,-2.100319 V 4.1020097 c 0,-1.1490515 -0.962224,-2.1020099 -2.122447,-2.1020099 z m 0,1.7316636 H 31.655332 c 0.2218,0 0.373948,0.1506832 0.373948,0.3703463 V 37.13045 c 0,0.219664 -0.152148,0.368655 -0.373948,0.368655 H 9.5737267 c -0.2217983,0 -0.3722388,-0.148991 -0.3722388,-0.368655 V 4.1020097 c 0,-0.2196631 0.1504405,-0.3703463 0.3722388,-0.3703463 z" />
   <path
      style="stroke-width:1.49999"
      d="m 16.244142,7.8990416 h 8.742486 c 0.484333,0 0.874249,0.5649335 0.874249,1.2666665 0,0.701734 -0.389916,1.2666679 -0.874249,1.2666679 h -8.742486 c -0.484334,0 -0.874249,-0.5649339 -0.874249,-1.2666679 0,-0.701733 0.389915,-1.2666665 0.874249,-1.2666665 z" />
   <path
      style="stroke-width:1.5"
      d="m 13.402833,31.30506 h 14.425102 c 0.363251,0 0.655686,0.451948 0.655686,1.013335 0,0.561385 -0.292435,1.013333 -0.655686,1.013333 H 13.402833 c -0.363249,0 -0.655686,-0.451948 -0.655686,-1.013333 0,-0.561387 0.292437,-1.013335 0.655686,-1.013335 z" />
   <path
      style="stroke-width:1.5"
      d="m 13.402833,25.225059 h 14.425102 c 0.363251,0 0.655686,0.451947 0.655686,1.013333 0,0.561388 -0.292435,1.013335 -0.655686,1.013335 H 13.402833 c -0.363249,0 -0.655686,-0.451947 -0.655686,-1.013335 0,-0.561386 0.292437,-1.013333 0.655686,-1.013333 z" />
   <path
      style="stroke-width:1.5"
      d="m 23.142509,14.585445 h 5.108892 c 0.128649,0 0.23222,0.451948 0.23222,1.013334 0,0.561387 -0.103574,1.013334 -0.23222,1.013334 h -5.108892 c -0.128651,0 -0.232223,-0.451947 -0.232223,-1.013334 0,-0.561386 0.103576,-1.013334 0.232223,-1.013334 z" />
   <path
      style="stroke-width:1.5"
      d="m 23.142509,18.63878 h 5.108892 c 0.128649,0 0.23222,0.451947 0.23222,1.013334 0,0.561386 -0.103574,1.013332 -0.23222,1.013332 h -5.108892 c -0.128651,0 -0.232223,-0.451946 -0.232223,-1.013332 0,-0.561387 0.103576,-1.013334 0.232223,-1.013334 z" />
   <path
      style="color:#000000;fill:#000000;stroke-width:1;"
      d="m 14.204667,14.078389 c -0.794668,0 -1.456667,0.663978 -1.456667,1.458647 v 4.176042 c 0,0.79467 0.661999,1.458647 1.456667,1.458647 h 4.178022 c 0.794669,0 1.458647,-0.663977 1.458647,-1.458647 v -4.176042 c 0,-0.794669 -0.663978,-1.458647 -1.458647,-1.458647 z m 0.06334,1.520001 h 4.053334 v 4.053334 h -4.053334 z" />
   <path
      style="color:#000000;fill:#000000;stroke-width:1;"
      d="m 35.042052,42.615384 c 1.16022,0 2.120342,-0.953113 2.120342,-2.102163 V 7.4851264 c 0,-1.1490498 -0.960122,-2.1005109 -2.120342,-2.1005109 h -1.264273 v 1.7319711 h 1.264273 c 0.221798,0 0.371845,0.1488757 0.371845,0.3685398 V 40.513221 c 0,0.219662 -0.150047,0.370192 -0.371845,0.370192 H 12.961073 c -0.2218,0 -0.375151,-0.15053 -0.375151,-0.370192 v -1.282452 h -1.748498 v 1.282452 c 0,1.14905 0.963426,2.102163 2.123649,2.102163 z" />
   <path
      style="color:#000000;fill:#000000;stroke-width:1;"
      d="m 38.426667,46 c 1.16022,0 2.120342,-0.953113 2.120342,-2.102164 V 10.869742 c 0,-1.1490501 -0.960122,-2.1005111 -2.120342,-2.1005111 h -1.264273 v 1.7319711 h 1.264273 c 0.221798,0 0.371845,0.148875 0.371845,0.36854 v 33.028094 c 0,0.219663 -0.150047,0.370192 -0.371845,0.370192 H 16.345688 c -0.2218,0 -0.375151,-0.150529 -0.375151,-0.370192 V 42.615384 H 14.22204 v 1.282452 C 14.22204,45.046887 15.185465,46 16.345688,46 Z" />
</svg>
