<svg
   width="48"
   height="48"
   viewBox="0 0 48 48"
   xmlns="http://www.w3.org/2000/svg"
>
   <path
      style="fill:none;stroke:#000000;stroke-width:2;"
      d="M 5.9367862,39.75 H 42.063214 C 43.690193,39.75 45,38.440193 45,36.813214 V 11.186786 C 45,9.559807 43.690193,8.25 42.063214,8.25 H 5.9367862 C 4.3098066,8.25 3,9.559807 3,11.186786 V 36.813214 C 3,38.440193 4.3098066,39.75 5.9367862,39.75 Z"
   />
   <path
      d="m 11.5,27.797418 v -2.679484 l 8.546055,-3.253658 v 1.897274 l -6.931709,2.704448 6.931709,2.696127 v 1.888951 z m 10.127116,4.460258 6.831851,-12.515352 h 1.897275 l -6.798566,12.515352 z m 10.32683,-1.2066 v -1.888951 l 6.923386,-2.696127 -6.923386,-2.704448 v -1.897274 l 8.546055,3.253658 v 2.679484 z"
   />
   <path
      d="m 3.9369998,15.467573 h 3.2469327 c 0.4171993,0 0.7530673,0.306142 0.7530673,0.686414 V 38.28116 c 0,0.380272 -0.335868,0.686413 -0.7530673,0.686413 H 3.9369998 Z"
   />
   <path
      d="m 44.217371,8.9437288 v 1.9510852 c 0,0.581099 -0.704894,1.048915 -1.580477,1.048915 H 4.795681 c -0.8755845,0 -1.5804776,-0.467816 -1.5804776,-1.048915 V 8.9437288 Z"
   />
</svg>
