<svg
   width="48"
   height="48"
   viewBox="0 0 48 48"
   xmlns="http://www.w3.org/2000/svg">
   <path
      d="M 43.5,24 A 19.5,19.5 0 0 1 24,43.5 19.5,19.5 0 0 1 4.5,24 19.5,19.5 0 0 1 24,4.5 19.5,19.5 0 0 1 43.5,24 Z"
      style="fill:none;stroke:#000000;stroke-width:3" />
   <path
      d="m 24.719678,15.823805 a 6.2904291,6.2904291 0 0 1 0,8.896009 6.2904291,6.2904291 0 0 1 -8.896009,1e-6 6.2904291,6.2904291 0 0 1 0,-8.896009 6.2904291,6.2904291 0 0 1 8.896009,-10e-7 z"
      style="fill:none;stroke:#000000;stroke-width:1.9749;stroke-dasharray:none" />
   <path
      d="m 25.096163,23.339377 c 0,0 0.215421,0.215448 1.829087,1.82909 1.613668,1.613638 6.465102,4.420841 7.85296,7.852694 0.215959,0.534012 0.378247,1.320527 -0.02907,1.727843 -0.407313,0.40732 -1.193834,0.245023 -1.727858,0.02908 -3.431878,-1.387786 -6.239289,-6.239056 -7.852955,-7.852694 -1.613667,-1.613638 -1.829091,-1.829091 -1.829091,-1.829091 z"
      style="stroke-width:1.41981;stroke-linecap:round;stroke-linejoin:round" />
</svg>
