<svg
   width="48"
   height="48"
   viewBox="0 0 48 48"
   xmlns="http://www.w3.org/2000/svg">
   <defs
      id="defs7">
      <linearGradient
         x1="30.059999"
         y1="30.059999"
         x2="225.94"
         y2="225.94"
         id="RSSg"
         gradientUnits="userSpaceOnUse"
         gradientTransform="matrix(0.17187499,0,0,0.17187499,2.000001,2.000001)">
         <stop
            offset="0.0"
            stop-color="#E3702D"
            id="stop1" />
         <stop
            offset="0.1071"
            stop-color="#EA7D31"
            id="stop2" />
         <stop
            offset="0.3503"
            stop-color="#F69537"
            id="stop3" />
         <stop
            offset="0.5"
            stop-color="#FB9E3A"
            id="stop4" />
         <stop
            offset="0.7016"
            stop-color="#EA7C31"
            id="stop5" />
         <stop
            offset="0.8866"
            stop-color="#DE642B"
            id="stop6" />
         <stop
            offset="1.0"
            stop-color="#D95B29"
            id="stop7" />
      </linearGradient>
   </defs>
   <path
      style="fill:#cc5d15;stroke-width:0.390625"
      d="m 11.453126,2.000001 h 25.093748 c 5.237032,0 9.453125,4.2160934 9.453125,9.453125 v 25.093748 c 0,5.237032 -4.216093,9.453125 -9.453125,9.453125 H 11.453126 c -5.2370316,0 -9.453125,-4.216093 -9.453125,-9.453125 V 11.453126 c 0,-5.2370316 4.2160934,-9.453125 9.453125,-9.453125 z" />
   <path
      style="fill:#f49c52;stroke-width:0.390625"
      d="m 11.453126,2.859376 h 25.093748 c 4.760937,0 8.59375,3.8328125 8.59375,8.59375 v 25.093748 c 0,4.760937 -3.832813,8.59375 -8.59375,8.59375 H 11.453126 c -4.7609375,0 -8.59375,-3.832813 -8.59375,-8.59375 V 11.453126 c 0,-4.7609375 3.8328125,-8.59375 8.59375,-8.59375 z" />
   <path
      style="fill:url(#RSSg);stroke-width:0.390625"
      d="m 11.796876,3.7187509 h 24.406248 c 4.475282,0 8.078125,3.6028435 8.078125,8.0781251 v 24.406248 c 0,4.475282 -3.602843,8.078125 -8.078125,8.078125 H 11.796876 c -4.4752816,0 -8.0781251,-3.602843 -8.0781251,-8.078125 V 11.796876 c 0,-4.4752816 3.6028435,-8.0781251 8.0781251,-8.0781251 z" />
   <path
      style="fill:#ffffff;stroke-width:0.390625"
      d="m 17.8125,34.484374 a 4.1249998,4.1249998 0 0 1 -4.125,4.125 4.1249998,4.1249998 0 0 1 -4.1249993,-4.125 4.1249998,4.1249998 0 0 1 4.1249993,-4.125 4.1249998,4.1249998 0 0 1 4.125,4.125 z" />
   <path
      d="M 29.5,38.609374 H 23.65625 A 14.093749,14.093749 0 0 0 9.5625007,24.515624 V 18.671876 A 19.937499,19.937499 0 0 1 29.5,38.609374 Z"
      fill="#ffffff"
      style="stroke-width:0.390625" />
   <path
      d="M 33.625,38.609374 A 24.062499,24.062499 0 0 0 9.5625007,14.546876 V 8.5312507 A 30.078123,30.078123 0 0 1 39.640624,38.609374 Z"
      fill="#ffffff"
      style="stroke-width:0.390625" />
</svg>
