<svg
   width="48"
   height="48"
   viewBox="0 0 48 48"
   xmlns="http://www.w3.org/2000/svg">
   <path
      style="color:#000000;fill:#000000;stroke-width:1;"
      d="m 3.7717621,10.120948 c -0.3725149,0 -0.7221891,0.07352 -1.0531064,0.264134 -0.3309174,0.190611 -0.7202399,0.589023 -0.7186509,1.168022 v 23.499369 c 0,0.09059 0.00512,0.179152 0.013721,0.267564 0,1.33811 1.1776068,2.559015 2.8540214,2.559015 H 37.771322 c 0.09486,0 0.186342,-0.0064 0.27614,-0.01544 0.08033,-0.0081 0.158582,-0.01931 0.234977,-0.0343 0.0045,-8.72e-4 0.0093,-8.19e-4 0.01373,-0.0018 0.0717,-0.01448 0.140922,-0.03287 0.209249,-0.05317 l 0.0018,-0.0018 c 0.0077,-0.0023 0.01629,-0.0027 0.02401,-0.0052 -0.07647,0.02368 -0.154221,0.04372 -0.234976,0.06003 1.196117,-0.223023 2.14794,-1.190441 2.313747,-2.40122 -0.05614,0.142116 -0.115178,0.281533 -0.178376,0.416783 0.06307,-0.134928 0.122359,-0.27497 0.178376,-0.416783 0.0092,-0.02331 0.02013,-0.04513 0.02915,-0.06861 L 45.908067,21.660403 C 46.44498,20.264618 44.517888,19.137406 43.040324,19.137406 H 40.639065 V 16.55781 c 0,-1.561226 -1.306616,-2.828295 -2.867743,-2.828294 H 22.751691 L 19.314516,10.932218 C 19.169607,10.687614 18.980813,10.49047 18.793109,10.383367 18.459885,10.19323 18.111013,10.120948 17.738287,10.120948 Z M 3.9312718,12.05393 H 17.628517 l 4.437111,3.606976 h 15.705694 c 0.545476,0 0.936476,0.395176 0.936476,0.897027 V 19.13753 H 10.136711 c -1.4775649,0 -2.3308296,1.127212 -2.8677435,2.522996 l -3.3376957,8.676979 z m 6.2054392,9.016581 h 32.903574 c 0.629043,0 1.016772,0.376816 0.93476,0.590015 L 38.706083,35.35777 c -0.06151,0.159899 -0.202701,0.410966 -0.53513,0.526553 -0.110873,0.0385 -0.24237,0.06174 -0.399631,0.06174 H 4.8677475 c -0.058801,0 -0.1136611,-0.0059 -0.1680853,-0.01201 -0.0018,-2.82e-4 -0.00335,-0.0014 -0.00515,-0.0018 -0.3742457,-0.06064 -0.6476044,-0.317619 -0.7323676,-0.65681 l 5.23809,-13.614917 c 0.082011,-0.2132 0.3074325,-0.590015 0.9364764,-0.590015 z m 30.270807,14.820673 c -0.07193,0.150716 -0.148011,0.296339 -0.229831,0.43565 0.0817,-0.139047 0.157996,-0.285201 0.229831,-0.43565 z m -0.253842,0.476813 c -0.0736,0.122612 -0.152791,0.240154 -0.234977,0.351608 0.03764,-0.05098 0.07054,-0.107807 0.106339,-0.161225 0.04264,-0.06361 0.08851,-0.123586 0.128638,-0.190383 z m -0.288147,0.421929 c -0.07756,0.100356 -0.158034,0.19568 -0.243552,0.284717 -0.02098,0.02185 -0.04198,0.04407 -0.06347,0.06518 0.01195,-0.01172 0.02251,-0.02578 0.0343,-0.03774 0.0095,-0.0096 0.01977,-0.01768 0.02916,-0.02744 0.04535,-0.04717 0.08556,-0.102198 0.128636,-0.152649 0.03807,-0.04457 0.07857,-0.0851 0.114916,-0.132068 z M 39.5568,37.141534 c -0.0845,0.08292 -0.173334,0.159102 -0.265849,0.22983 -0.03381,0.02585 -0.06799,0.05136 -0.102909,0.07547 0.01897,-0.01306 0.03453,-0.03102 0.05317,-0.04459 0.01575,-0.01149 0.03422,-0.01902 0.04974,-0.03088 0.04984,-0.03805 0.09316,-0.08525 0.140643,-0.126921 0.04086,-0.03583 0.08604,-0.06454 0.125205,-0.102909 z m -0.372189,0.307013 c -0.08272,0.05691 -0.169821,0.10783 -0.258988,0.154364 0.04738,-0.0247 0.08996,-0.05807 0.135497,-0.08576 0.04015,-0.02439 0.08473,-0.042 0.123491,-0.06861 z m -0.293291,0.173231 c -0.04111,0.0206 -0.0827,0.04003 -0.125206,0.05832 -0.06898,0.02968 -0.139922,0.05729 -0.21268,0.08062 0.05635,-0.01803 0.110572,-0.03989 0.164655,-0.06174 0.0036,-0.0015 0.0067,-0.0037 0.01029,-0.0052 0.01231,-0.005 0.02554,-0.0085 0.03773,-0.01373 0.01018,-0.0044 0.01906,-0.01092 0.02916,-0.01544 0.03222,-0.01438 0.06464,-0.02714 0.09605,-0.04288 z" />
</svg>
