<svg
   width="48"
   height="48"
   viewBox="0 0 48 48"
   xmlns="http://www.w3.org/2000/svg">
   <path
      d="m 38.934008,38.934008 c -5.105929,5.10593 -1.797008,-2.08754 -8.468226,0.675769 -6.67122,2.763309 0.755093,5.5101 -6.465782,5.510101 -7.220875,0 0.205437,-2.746792 -6.465781,-5.510101 -6.67122,-2.763309 -3.362297,4.430161 -8.4682282,-0.675769 C 3.9600618,33.828079 11.153531,37.137 8.3902221,30.465782 5.6269131,23.794563 2.8801227,31.220876 2.8801227,24 c -1.1e-6,-7.220875 2.7467904,0.205438 5.5100994,-6.465781 2.7633089,-6.67122 -4.4301613,-3.362297 0.6757687,-8.4682284 5.1059292,-5.105929 1.7970082,2.0875414 8.4682262,-0.6757687 6.67122,-2.763309 -0.755093,-5.5100994 6.465782,-5.5100994 7.220875,-1.1e-6 -0.205437,2.7467904 6.465781,5.5100994 6.67122,2.7633091 3.362297,-4.4301613 8.468228,0.6757687 5.10593,5.1059304 -2.08754,1.7970084 0.675769,8.4682274 2.763309,6.671219 5.510099,-0.755094 5.5101,6.465782 0,7.220875 -2.746791,-0.205438 -5.5101,6.465781 -2.763309,6.671219 4.430161,3.362296 -0.675769,8.468227 z"
      style="fill:none;stroke:#000000;stroke-width:2" />
   <path
      d="M 34.1,24 A 10.1,10.1 0 0 1 24,34.1 10.1,10.1 0 0 1 13.9,24 10.1,10.1 0 0 1 24,13.9 10.1,10.1 0 0 1 34.1,24 Z"
      style="fill:none;stroke:#000000;stroke-width:1.8" />
   <path
      d="M 30.25,24 A 6.25,6.25 0 0 1 24,30.25 6.25,6.25 0 0 1 17.75,24 6.25,6.25 0 0 1 24,17.75 6.25,6.25 0 0 1 30.25,24 Z"
      style="fill:none;stroke:#000000;stroke-width:3" />
</svg>
