<svg
   width="48"
   height="48"
   viewBox="0 0 48 48"
   xmlns="http://www.w3.org/2000/svg">
   <path
      style="stroke-width:2"
      d="m 23.000227,2.000001 h 1.680011 v 43.680467 h -1.680011 z"
      id="path1" />
   <path
      style="stroke-width:2"
      d="m 45.680465,23.000228 v 1.680011 H 2 v -1.680011 z"
      id="path2" />
   <path
      style="fill:#000000;fill-opacity:1;stroke:none;stroke-width:2"
      d="M 5.9379895,12.920116 A 21.000223,21.000223 0 0 0 5.0208703,14.599239 H 42.692557 a 21.000223,21.000223 0 0 0 -0.919058,-1.679123 z"
      id="path3" />
   <path
      style="stroke-width:2"
      d="m 5.0208703,33.081226 a 21.000223,21.000223 0 0 0 0.9171192,1.679123 H 41.773499 a 21.000223,21.000223 0 0 0 0.919058,-1.679123 z"
      id="path4" />
   <path
      style="stroke-width:2"
      d="m 23.000227,2.000001 h 1.680011 c -18.1810707,13.126794 -19.2454047,27.570256 0,43.680467 h -1.680011 c -19.2116013,-16.140321 -18.3060259,-30.592251 0,-43.680467 z"
      id="path5" />
   <path
      style="stroke-width:2"
      d="m 24.680238,2.000001 h -1.680011 c 18.181061,13.126794 19.245405,27.570256 0,43.680468 h 1.680011 c 19.211602,-16.140322 18.306026,-30.592252 0,-43.680468 z"
      id="path6" />
   <path
      style="color:#000000;fill:#000000;"
      d="M 23.839844,1.8398437 C 11.701309,1.8398409 1.8398409,11.701309 1.8398437,23.839844 c -1.1e-6,12.138533 9.8614663,22.000003 22.0000003,22 12.138533,2e-6 22.000001,-9.861467 22,-22 3e-6,-12.138535 -9.861466,-22.0000026 -22,-22.0000003 z m 0,2.0000001 c 11.057655,-2.2e-6 20.000002,8.9423452 20,20.0000002 10e-7,11.057654 -8.942346,20.000002 -20,20 -11.057655,2e-6 -20.0000013,-8.942346 -20.0000002,-20 C 3.8398412,12.782188 12.782188,3.8398412 23.839844,3.8398438 Z"
      id="path7" />
</svg>
