<svg
   width="48"
   height="48"
   viewBox="0 0 48 48"
   xmlns="http://www.w3.org/2000/svg">
   <path
      style="color:#000000;fill:#000000;"
      d="m 21.299226,11.101563 c -1.300433,0 -2.371094,1.07066 -2.371094,2.371093 v 3.601563 c 0,1.300433 1.070661,2.371093 2.371094,2.371093 H 33.23282 c 1.300433,0 2.371093,-1.07066 2.371093,-2.371093 v -3.601563 c 0,-1.300433 -1.07066,-2.371093 -2.371093,-2.371093 z m 0,1.5 H 33.23282 c 0.49538,0 0.871093,0.375713 0.871093,0.871093 v 3.601563 c 0,0.49538 -0.375713,0.871093 -0.871093,0.871093 H 21.299226 c -0.49538,0 -0.871094,-0.375713 -0.871094,-0.871093 v -3.601563 c 0,-0.49538 0.375714,-0.871093 0.871094,-0.871093 z" />
   <path
      style="color:#000000;fill:#000000;stroke-width:1;"
      d="m 12.417601,2.0000001 c -3.5437169,0 -6.4749368,3.8853692 -6.4749368,7.4339997 V 41.6015 c 0,2.28848 2.5885023,4.398522 6.4749368,4.3985 l 29.476218,-1.69e-4 v -1.31294 c -0.02234,0 -1.68654,-0.677749 -1.68654,-3.085391 0,-2.136388 1.847068,-3.000189 1.850057,-2.989032 V 2.0000001 Z m 0,1.6416151 V 37.518045 c -0.87808,0.260799 -2.8521852,0.130763 -4.8333605,1.687609 V 9.4339998 c 0,-3.825937 3.0234765,-5.7923846 4.8333605,-5.7923846 z m 1.641577,0 H 40.41576 V 37.51759 H 14.059178 Z M 39.82101,39.159165 c 0,0 -1.255306,0.66877 -1.255306,2.442335 0,1.774556 1.232084,2.843461 1.255306,2.756794 0,0 -18.486093,-1.71e-4 -27.403409,-1.71e-4 -1.888571,0 -4.8782053,-0.89711 -4.8333605,-2.750249 0.043693,-1.805559 3.0724185,-2.28883 4.8333605,-2.448709 z" />
   <path
      style="stroke-width:2"
      d="m 12.236726,40.999722 h 23.5 c 0.4155,0 0.75,0.3345 0.75,0.75 0,0.4155 -0.3345,0.75 -0.75,0.75 h -23.5 c -0.4155,0 -0.75,-0.3345 -0.75,-0.75 0,-0.4155 0.3345,-0.75 0.75,-0.75 z" />
</svg>
