<svg
   width="48"
   height="48"
   viewBox="0 0 48 48"
   xmlns="http://www.w3.org/2000/svg">
   <path
      d="M 26.098785,33.606615 27.6,33.978184 V 35 h -7.2 v -1.021816 l 1.486642,-0.371569 V 21.840254 l -1.39919,-0.37157 v -1.021815 h 5.611333 z m -4.357899,-18.23786 q 0,-1.006334 0.655874,-1.687544 Q 23.067206,13 23.985427,13 q 0.932792,0 1.574085,0.696693 0.655872,0.68121 0.655872,1.672062 0,0.975369 -0.6413,1.687544 -0.641291,0.696692 -1.588657,0.696692 -0.932793,0 -1.588667,-0.681211 -0.655874,-0.696692 -0.655874,-1.703025 z" />
   <path
      d="M 43.5,24 A 19.5,19.5 0 0 1 24,43.5 19.5,19.5 0 0 1 4.5,24 19.5,19.5 0 0 1 24,4.5 19.5,19.5 0 0 1 43.5,24 Z"
      style="fill:none;stroke:#000000;stroke-width:3;stroke-dasharray:none" />
</svg>
