<?xml version="1.0" encoding="UTF-8" standalone="no"?>
<svg
   width="48"
   height="48"
   viewBox="0 0 48 48"
   xmlns="http://www.w3.org/2000/svg">
   <path
      style="fill:none;fill-opacity:1;stroke:#000000;stroke-width:1.62375;stroke-linecap:square;stroke-linejoin:miter;stroke-opacity:1"
      d="m 20.733862,2.8118742 c -1.281244,0 -2.312243,1.385803 -2.312243,3.1062678 v 11.582051 h 9.04772 c 1.291872,0 2.331933,1.390632 2.331933,3.116394 v 1.58731 h 6.407344 l 6.424844,8.625146 -1.721604,-8.625146 h 1.463473 c 1.281245,0 2.312244,-1.385804 2.312244,-3.106268 V 5.918142 c 0,-1.7204648 -1.030999,-3.1062678 -2.312244,-3.1062678 z"
      id="path1" />
   <path
      d="m 32.477587,5.2851671 -1.888048,0.5589768 c 0.339014,0.6338072 0.679928,1.4732429 0.842065,2.0775707 h -6.266298 v 1.724912 h 2.329469 c 0.795944,2.0782984 1.828168,3.8614994 3.154741,5.3354704 -0.820062,0.638703 -0.552154,0.43556 -1.593824,0.885323 0.696975,0.132563 1.296699,0.586103 1.681727,1.22831 0.880579,-0.46316 0.489287,-0.248525 1.224373,-0.84454 1.562408,1.311834 3.462415,2.283773 5.791287,2.902841 0.265315,-0.48641 0.796752,-1.252569 1.194725,-1.650541 -2.225695,-0.501149 -4.08323,-1.385746 -5.616159,-2.550182 1.311835,-1.429752 2.31425,-3.184166 3.065977,-5.3066814 h 2.269493 V 7.9217146 H 32.24248 L 33.494781,7.5234735 C 33.317904,6.9191458 32.875558,5.9779331 32.477587,5.2851671 Z M 29.322845,9.6466266 H 34.42321 C 33.818881,11.267993 33.022359,12.623973 31.99058,13.74419 30.855623,12.579754 29.971392,11.194294 29.322845,9.6466266 Z"
      id="path2"
      style="stroke-width:1.06885" />
   <path
      d="m 19.765867,32.772227 -1.014978,-2.923138 h -4.360348 l -1.01498,2.923138 H 10.98021 l 4.173594,-11.440842 h 2.8257 l 4.157353,11.440842 z m -3.199213,-9.678838 -0.04873,0.178636 q -0.08119,0.292315 -0.194876,0.665826 -0.113679,0.373512 -1.396611,4.108636 h 3.288531 l -1.128657,-3.288533 -0.349152,-1.104296 z"
      id="path3"
      style="stroke-width:1.20588" />
   <path
      style="fill:none;fill-opacity:1;stroke:#000000;stroke-width:1.63032;stroke-linecap:square;stroke-linejoin:miter;stroke-opacity:1"
      d="m 5.6477288,17.500193 c -1.2920157,0 -2.3320164,1.386335 -2.3320164,3.106326 v 13.174798 c 0,1.71999 1.0400007,3.106328 2.3320164,3.106328 h 1.4751055 l -1.7359047,8.62277 6.4772124,-8.62277 h 15.605197 c 1.292015,0 2.332015,-1.386338 2.332015,-3.106328 V 20.606519 c 0,-1.719991 -1.04,-3.106326 -2.332015,-3.106326 z"
      id="path4" />
</svg>
