<svg
   viewBox="0 0 48 48"
   width="48"
   height="48"
   xmlns="http://www.w3.org/2000/svg">
   <path
      d="m 19.324443,12.462223 c -0.32,1.137777 -0.48,2.328887 -0.48,3.537777 0,7.253334 5.902223,13.155556 13.155557,13.155556 1.208889,0 2.4,-0.16 3.537777,-0.48 C 33.688888,33.226666 29.208889,36.444443 24,36.444443 17.137777,36.444443 11.555556,30.862222 11.555556,24 c 0,-5.208889 3.217777,-9.68889 7.768887,-11.537777 z M 24,8 C 15.164444,8 8,15.164444 8,24 8,32.835556 15.164444,40 24,40 32.835556,40 40,32.835556 40,24 40,23.182223 39.92889,22.364443 39.822222,21.582223 38.08,24.017777 35.235556,25.6 32,25.6 26.702223,25.6 22.4,21.297777 22.4,16 22.4,12.782223 23.982223,9.92 26.417777,8.1777777 25.635556,8.0711112 24.817777,8 24,8 Z"
      fill="currentColor"
      style="stroke-width:1.11111" />
</svg>
