<svg
   width="48"
   height="48"
   viewBox="0 0 48 48"
   xmlns="http://www.w3.org/2000/svg">
   <path
      style="color:#000000;fill:#000000;stroke-width:1;"
      d="m 3.964036,2.0000273 c -1.07208,0 -1.96403,0.891954 -1.96403,1.9640292 V 40.369318 c 0,1.072076 0.89195,1.964029 1.96403,1.964029 h 36.405263 c 1.072071,0 1.964029,-0.891953 1.964029,-1.964029 V 3.9640564 c 0,-1.0720752 -0.891958,-1.9640292 -1.964029,-1.9640292 h -2.363282 -1.520019 c 0.01143,0.015171 0.02166,0.03058 0.03223,0.046548 0.0042,0.00642 0.0084,0.013163 0.01253,0.01969 0.0164,0.026079 0.03216,0.052516 0.04655,0.080566 0.02726,0.052938 0.05052,0.1087121 0.07162,0.1682945 0.007,0.019681 0.0133,0.038711 0.01969,0.059079 0.0066,0.020891 0.01367,0.041058 0.01969,0.062663 0.0059,0.021037 0.01072,0.042753 0.01611,0.064451 0.03781,0.1520877 0.06408,0.3188404 0.08772,0.4995116 l 0.458333,3.5001614 c 0.111523,0.8521569 -0.526503,1.4072259 -1.018717,1.4072259 -0.492216,0 -1.128693,-0.5551011 -1.016927,-1.4072259 L 35.67316,3.0008303 C 35.72724,2.588523 35.796744,2.2427546 35.979312,2.0000167 h -1.520019 -5.831215 -1.520019 c 0.182911,0.242725 0.252206,0.5886117 0.306152,1.0008136 l 0.458333,3.5001614 c 0.111523,0.8521569 -0.526503,1.4072259 -1.018717,1.4072259 -0.492216,0 -1.128693,-0.5551011 -1.016927,-1.4072259 l 0.349121,-2.6676422 h 0.0018 L 26.297034,3.0008303 C 26.351114,2.588523 26.42062,2.2427546 26.603186,2.0000167 h -0.0018 -1.518228 -0.0018 -5.829425 -1.520019 c 0.06859,0.091025 0.121104,0.1970109 0.162923,0.3151041 0.007,0.019681 0.0133,0.038711 0.01969,0.059079 0.0066,0.020891 0.01367,0.041057 0.01969,0.062663 0.0059,0.021037 0.01073,0.042753 0.01611,0.064451 0.03781,0.1520878 0.06408,0.3188404 0.08773,0.4995117 l 0.458333,3.5001613 c 0.111523,0.8521569 -0.526502,1.4072259 -1.018717,1.4072259 -0.492215,0 -1.128693,-0.5551011 -1.016927,-1.4072259 l 0.458333,-3.5001613 c 0.01352,-0.1030773 0.02778,-0.2012211 0.04476,-0.2954104 0.0042,-0.023549 0.0097,-0.046878 0.01433,-0.069822 0.05035,-0.2520512 0.121697,-0.4688859 0.247071,-0.6355789 h -1.520014 -5.82943 -1.52002 c 0.0115,0.015171 0.0216,0.03058 0.0323,0.046548 0.005,0.00642 0.008,0.013163 0.0126,0.01969 0.0128,0.020442 0.026,0.041002 0.0376,0.062663 0.004,0.00596 0.005,0.011843 0.009,0.017902 0.009,0.017958 0.0183,0.034962 0.0269,0.053708 0.0165,0.036502 0.0308,0.075222 0.0447,0.1145833 0.007,0.019681 0.0133,0.038711 0.0197,0.059079 0.006,0.020891 0.0137,0.041057 0.0197,0.062663 0.005,0.021037 0.0107,0.042753 0.0161,0.064451 0.0162,0.06534 0.0302,0.1331577 0.043,0.2041012 0.017,0.094185 0.0313,0.1923597 0.0447,0.2954095 l 0.10921,0.8325201 0.34912,2.6676422 c 0.11152,0.8521559 -0.52651,1.4072259 -1.01872,1.4072259 -0.49221,0 -1.12869,-0.5551011 -1.01692,-1.4072259 l 0.34912,-2.6676422 0.10921,-0.8325201 c 0.017,-0.1291051 0.0361,-0.2502966 0.059,-0.3652338 0.0137,-0.068594 0.029,-0.1358215 0.0466,-0.1987305 0.0235,-0.084159 0.0512,-0.1633353 0.0842,-0.2363276 0.0165,-0.036492 0.0343,-0.070354 0.0537,-0.1038417 0.0194,-0.033495 0.0399,-0.066339 0.0627,-0.096679 h -1.52003 z m 15.420405,0.7430012 c 0.0091,0.085323 0.01739,0.1718099 0.02865,0.2578124 -0.0086,-0.066174 -0.01618,-0.1311144 -0.02327,-0.1969402 -0.0022,-0.020185 -0.0032,-0.040746 -0.0054,-0.060876 z m 9.376137,0 c 0.0091,0.085323 0.01739,0.1718099 0.02865,0.2578124 -0.0086,-0.066174 -0.01618,-0.1311144 -0.02327,-0.1969402 -0.0022,-0.020185 -0.0032,-0.040746 -0.0054,-0.060876 z M 3.964036,3.83336 h 2.09473 l -0.34912,2.6676421 c -0.18996,1.4482541 0.99392,2.7822266 2.39192,2.7822266 1.398,0 2.58326,-1.3339184 2.39372,-2.7822266 L 10.146166,3.83336 h 5.28873 l -0.34912,2.6676421 c -0.18995,1.4482541 0.993925,2.7822266 2.391928,2.7822266 1.398002,0 2.583258,-1.3339184 2.393716,-2.7822266 L 19.5223,3.83336 h 5.288735 l -0.349121,2.6676421 c -0.189956,1.4482541 0.993923,2.7822266 2.391927,2.7822266 1.398001,0 2.583258,-1.3339184 2.393716,-2.7822266 L 28.898436,3.83336 h 5.290526 l -0.349121,2.6676421 c -0.189956,1.4482541 0.993923,2.7822266 2.391926,2.7822266 1.398002,0 2.583259,-1.3339184 2.393717,-2.7822266 L 38.276363,3.83336 h 2.092936 c 0.08813,0 0.130696,0.042569 0.130696,0.1306964 V 40.369318 c 0,0.08813 -0.04257,0.130697 -0.130696,0.130697 H 3.964036 c -0.0881,0 -0.1307,-0.04257 -0.1307,-0.130697 V 3.9640564 c 0,-0.088127 0.0425,-0.1306964 0.1307,-0.1306964 z" />
   <path
      style="color:#000000;fill:#000000;stroke-width:1;"
      d="m 42.333328,5.6666794 v 1.8333327 h 1.702636 c 0.08813,0 0.130697,0.042569 0.130697,0.1306966 V 44.035971 c 0,0.08813 -0.04257,0.130696 -0.130697,0.130696 H 7.630706 c -0.0881,0 -0.1307,-0.04257 -0.1307,-0.130696 v -1.702636 h -1.83333 v 1.702636 C 5.666676,45.108051 6.558626,46 7.630706,46 h 36.405258 c 1.072079,0 1.96403,-0.891949 1.96403,-1.964029 V 7.6307087 c 0,-1.0720799 -0.891951,-1.9640293 -1.96403,-1.9640293 z" />
</svg>
