<svg
   width="48"
   height="48"
   viewBox="0 0 48 48"
   xmlns="http://www.w3.org/2000/svg">
   <path
      style="color:#000000;fill:#000000;"
      d="M 10.908203,2 C 9.5558417,2 8.4453125,3.1124824 8.4453125,4.4648437 V 43.535156 C 8.4453125,44.887518 9.5558417,46 10.908203,46 h 26.183594 c 1.352361,0 2.462891,-1.112482 2.46289,-2.464844 V 4.4648437 C 39.554687,3.1124824 38.444158,2 37.091797,2 Z m 0,1.5 h 26.183594 c 0.547303,0 0.96289,0.4175411 0.96289,0.9648437 V 43.535156 C 38.054687,44.082459 37.6391,44.5 37.091797,44.5 H 10.908203 C 10.3609,44.5 9.9453125,44.082459 9.9453125,43.535156 V 4.4648437 C 9.9453125,3.9175411 10.3609,3.5 10.908203,3.5 Z" />
   <path
      style="stroke-width:1.5"
      d="M 16.379652,9.75 H 31.62035 c 0.6925,0 1.25,0.5575 1.25,1.25 0,0.6925 -0.5575,1.25 -1.25,1.25 H 16.379652 c -0.6925,0 -1.25,-0.5575 -1.25,-1.25 0,-0.6925 0.5575,-1.25 1.25,-1.25 z" />
   <path
      style="stroke-width:1.5"
      d="m 15.000002,18.25 h 18 c 0.554,0 1,0.446 1,1 0,0.554 -0.446,1 -1,1 h -18 c -0.554,0 -1,-0.446 -1,-1 0,-0.554 0.446,-1 1,-1 z" />
   <path
      style="stroke-width:1.5"
      d="m 15.000002,24.25 h 18 c 0.554,0 1,0.446 1,1 0,0.554 -0.446,1 -1,1 h -18 c -0.554,0 -1,-0.446 -1,-1 0,-0.554 0.446,-1 1,-1 z" />
   <path
      style="stroke-width:1.5"
      d="m 15.000002,30.25 h 18 c 0.554,0 1,0.446 1,1 0,0.554 -0.446,1 -1,1 h -18 c -0.554,0 -1,-0.446 -1,-1 0,-0.554 0.446,-1 1,-1 z" />
   <path
      style="stroke-width:1.5"
      d="m 15.000002,36.25 h 18 c 0.554,0 1,0.446 1,1 0,0.554 -0.446,1 -1,1 h -18 c -0.554,0 -1,-0.446 -1,-1 0,-0.554 0.446,-1 1,-1 z" />
</svg>
