<svg
   width="48"
   height="48"
   viewBox="0 0 48 48"
   xmlns="http://www.w3.org/2000/svg">
   <path
      style="stroke-width:2"
      d="m 9.5,18.781802 v -2.679483 l 8.546055,-3.253659 v 1.897273 l -6.931707,2.704448 6.931707,2.696127 v 1.888953 z m 10.127117,4.460258 6.831851,-12.515351 h 1.897274 L 21.557677,23.24206 Z m 10.326829,-1.206599 v -1.888953 l 6.923386,-2.696127 -6.923386,-2.704448 V 12.84866 L 38.5,16.102319 v 2.679483 z" />
   <path
      style="color:#000000;fill:#000000;"
      d="M 4.77539,4.6093845 C 3.255154,4.6093845 2,5.8645395 2,7.3847751 V 26.583994 c 0,1.520236 1.255154,2.775391 2.77539,2.775391 H 43.224609 C 44.744845,29.359385 46,28.10423 46,26.583994 V 7.3847751 C 46,5.8645395 44.744845,4.6093845 43.224609,4.6093845 Z m 0,2 H 43.224609 C 43.671445,6.6093845 44,6.9379386 44,7.3847751 V 26.583994 c 0,0.446837 -0.328555,0.775391 -0.775391,0.775391 H 4.77539 C 4.328554,27.359385 4,27.030831 4,26.583994 V 7.3847751 C 4,6.9379386 4.328554,6.6093845 4.77539,6.6093845 Z" />
   <path
      style="color:#000000;fill:#000000;"
      d="m 18.027343,29.373056 c 1.289204,5.34797 0.892542,8.840146 0.0098,11.931641 -0.175564,0.61483 0.115948,1.232719 0.46875,1.556641 0.352802,0.323922 0.776114,0.498047 1.273437,0.498047 h 8.439454 c 0.496769,0 0.921126,-0.174119 1.273437,-0.498047 0.352311,-0.323929 0.641676,-0.93787 0.470703,-1.550782 -1.072888,-3.846149 -1.04517,-7.803029 0.0059,-11.923828 0.154437,-0.605504 -0.128071,-1.205359 -0.478516,-1.529297 -0.350445,-0.323937 -0.776632,-0.498046 -1.271484,-0.498046 H 19.77937 c -0.493794,0 -0.920241,0.174115 -1.269531,0.498046 -0.349289,0.323932 -0.627261,0.914793 -0.482422,1.515625 z m 2.009766,11.986329 c 0.836889,-3.145419 1.181544,-6.860558 0.01563,-12 h 7.916016 c -0.970641,4.082108 -0.999477,8.100444 0,12 z" />
   <path
      style="color:#000000;fill:#000000;"
      d="m 21.505859,28.476572 c 0.24113,1.908884 0.734815,1.559845 0.394531,6.810547 -0.03954,0.610088 0.4666,1.072266 1.021485,1.072266 h 2.154296 c 0.555635,0 1.072811,-0.461296 1.019532,-1.087891 -0.214972,-2.527684 -0.109225,-4.788666 0.380859,-6.703125 0.09487,-0.370593 -0.08209,-0.743829 -0.283203,-0.929688 -0.20111,-0.185858 -0.432067,-0.279296 -0.716797,-0.279296 h -2.955078 c -0.278892,0 -0.524405,0.101106 -0.71875,0.287109 -0.194345,0.186003 -0.33846,0.500815 -0.296875,0.830078 z m 1.597656,0.382813 h 1.822266 c -0.383443,1.823568 -0.484126,3.82875 -0.335938,6 h -1.191406 c 0.20762,-3.916247 -0.07259,-4.911274 -0.294922,-6 z" />
   <path
      style="stroke-width:1.99998"
      d="m 14.999198,41.390617 h 18 c 0.554,0 1,0.446 1,1 0,0.554 -0.446,1 -1,1 h -18 c -0.554,0 -1,-0.446 -1,-1 0,-0.554 0.446,-1 1,-1 z" />
</svg>
