<svg
   width="48"
   height="48"
   viewBox="0 0 48 48"
   xmlns="http://www.w3.org/2000/svg"
>
   <path
      d="m 9.5000002,19.483821 v -2.679483 l 8.5460558,-3.253659 v 1.897273 l -6.931707,2.704448 6.931707,2.696127 v 1.888953 z m 10.1271168,4.460258 6.831851,-12.515351 h 1.897274 L 21.557677,23.94408 Z M 29.953946,22.73748 V 20.848527 L 36.877332,18.1524 29.953946,15.447952 V 13.550679 L 38.5,16.804338 v 2.679483 z"
   />
   <path
      style="color:#000000;fill:#000000;"
      d="m 5.6492362,4.686404 c -1.451134,0 -2.649236,1.3185466 -2.649236,2.9155617 V 27.770842 c 0,1.597015 1.198102,2.915562 2.649236,2.915562 H 42.350763 C 43.801897,30.686404 45,29.367857 45,27.770842 V 7.6019657 C 45,6.0049506 43.801897,4.686404 42.350763,4.686404 Z m 0,2.10101 H 42.350763 c 0.426525,0 0.740147,0.3451477 0.740147,0.8145517 V 27.770842 c 0,0.469404 -0.313621,0.814552 -0.740147,0.814552 H 5.6492362 c -0.426525,0 -0.740145,-0.345148 -0.740145,-0.814552 V 7.6019657 c 0,-0.469404 0.31362,-0.8145517 0.740145,-0.8145517 z"
   />
   <path
      style="color:#000000;fill:#000000;"
      d="m 18.012695,31.132624 c 1.289204,4.645711 0.892542,7.679319 0.0098,10.36486 -0.175564,0.534094 0.115948,1.070846 0.46875,1.352233 0.352802,0.281387 0.776114,0.432647 1.273437,0.432647 h 8.439454 c 0.496769,0 0.921126,-0.151255 1.273437,-0.432647 0.352311,-0.281393 0.641676,-0.814715 0.470703,-1.347144 -1.072888,-3.341099 -1.04517,-6.778389 0.0059,-10.358073 0.154437,-0.525993 -0.128071,-1.047079 -0.478516,-1.32848 -0.350445,-0.2814 -0.776632,-0.432646 -1.271484,-0.432646 h -8.439454 c -0.493794,0 -0.920241,0.151252 -1.269531,0.432646 -0.349289,0.281396 -0.627261,0.794669 -0.482422,1.316604 z m 2.009766,10.412366 c 0.836889,-2.732384 1.181544,-5.959676 0.01563,-10.424242 h 7.916016 c -0.970641,3.546074 -0.999477,7.036749 0,10.424242 z"
   />
   <path
      style="color:#000000;fill:#000000;"
      d="m 21.491211,30.35386 c 0.24113,1.658222 0.734815,1.355017 0.394531,5.916233 -0.03954,0.529975 0.4666,0.931463 1.021485,0.931463 h 2.154296 c 0.555635,0 1.072811,-0.400722 1.019532,-0.945037 -0.214972,-2.195766 -0.109225,-4.159851 0.380859,-5.822916 0.09487,-0.32193 -0.08209,-0.646155 -0.283203,-0.807608 -0.20111,-0.161453 -0.432067,-0.242621 -0.716797,-0.242621 h -2.955078 c -0.278892,0 -0.524405,0.08783 -0.71875,0.249408 -0.194345,0.161578 -0.33846,0.435051 -0.296875,0.721078 z m 1.597656,0.332544 h 1.822266 c -0.383443,1.58411 -0.484126,3.325985 -0.335938,5.212122 h -1.191406 c 0.20762,-3.401993 -0.07259,-4.26636 -0.294922,-5.212122 z"
   />
   <path
      d="m 14.98455,41.313596 h 18 c 0.554,0 1,0.446 1,1 0,0.554 -0.446,1 -1,1 h -18 c -0.554,0 -1,-0.446 -1,-1 0,-0.554 0.446,-1 1,-1 z"
   />
</svg>
