<svg
  width="48"
  height="48"
  viewBox="0 0 48 48"
  version="1.1"
  xmlns="http://www.w3.org/2000/svg">
  <path
    style="fill:#000000;stroke-width:0.1"
    d="m 23.999341,27.7908 c 0.407303,-0.319836 1.04696,-0.867357 1.421389,-1.216806 0.757499,-0.706961 2.46457,-2.725267 2.654641,-3.138613 0.112758,-0.245206 0.105514,-0.279322 -0.09158,-0.431854 l -0.213962,-0.165622 -0.36201,0.51572 c -1.060314,1.510507 -2.723282,3.200031 -4.191337,4.258255 l -0.668946,0.482192 0.207783,0.163922 c 0.114282,0.09015 0.274291,0.152726 0.355558,0.139087 0.08133,-0.01366 0.481076,-0.286476 0.88842,-0.606271 z"
    id="path114" />
  <path
    style="fill:#000000;stroke-width:0.1"
    d="m 25.554672,28.060675 c 0.69525,-0.521937 1.939748,-1.791921 2.302744,-2.349908 0.180864,-0.278025 0.236026,-0.488845 0.251799,-0.962245 l 0.0202,-0.606241 -0.767247,0.928279 c -0.829036,1.003014 -2.024504,2.189147 -2.914647,2.891901 l -0.55768,0.440283 0.414452,-0.01504 c 0.749476,-0.02724 0.905276,-0.06796 1.250403,-0.327028 z"
    id="path113" />
  <path
    style="fill:#000000;stroke-width:0.1"
    d="m 29.422193,30.784209 c 0.787039,-0.653996 1.73069,-1.776081 1.720397,-2.045747 -0.0027,-0.07039 -0.655068,-0.759909 -1.449747,-1.53214 L 28.247981,25.802246 27.625084,26.5495 c -0.342605,0.410982 -0.936205,1.010847 -1.31919,1.332937 -0.427556,0.359716 -0.670333,0.62134 -0.629116,0.678007 0.03692,0.05067 0.69242,0.709413 1.456761,1.463706 1.562826,1.542347 1.4086,1.491178 2.288601,0.759959 z"
    id="path109" />
  <path
    style="fill:#000000;stroke-width:0.1"
    d="m 29.702961,31.781099 c 1.000402,-0.700484 2.387299,-2.37667 2.368776,-2.862773 -0.0074,-0.194839 -0.181487,-0.358002 -0.351451,-0.329456 -0.06424,0.01079 -0.178347,0.157471 -0.253605,0.325965 -0.337246,0.75497 -1.611782,2.089933 -2.482394,2.600088 -0.379645,0.22247 -0.489917,0.332327 -0.484206,0.482365 0.0163,0.427073 0.376678,0.362295 1.202872,-0.216175 z"
    id="path108" />
  <path
    style="fill:#000000;stroke-width:0.1"
    d="m 29.420443,32.726104 c 1.449052,-0.760375 2.881262,-2.313604 3.359814,-3.643709 0.247018,-0.686579 -0.139111,-0.456493 -0.549471,0.327429 -0.568115,1.085275 -1.938476,2.460197 -3.022091,3.032011 -0.417927,0.220583 -0.664491,0.448725 -0.665296,0.615596 -8.29e-4,0.110078 0.129115,0.06098 0.876963,-0.331405 z"
    id="path107" />
  <path
    style="fill:#000000;stroke-width:0.1"
    d="m 41.743028,44.7851 c 1.34648,-0.577787 2.501545,-1.727535 3.038115,-3.024227 0.163018,-0.393916 0.293052,-0.798684 0.288928,-0.899486 -0.011,-0.264065 -0.175093,-0.448619 -1.882919,-2.114292 -0.845458,-0.824527 -3.384955,-3.317896 -5.643419,-5.54076 -2.258461,-2.222861 -4.140025,-4.072002 -4.181249,-4.1092 -0.04118,-0.03723 -0.128742,0.07984 -0.194434,0.260121 -0.486075,1.333427 -2.461874,3.354856 -3.862824,3.952018 l -0.391335,0.166809 0.990855,0.969328 c 0.545001,0.533096 2.110215,2.071031 3.478332,3.417565 3.307444,3.255334 4.809783,4.72814 5.584309,5.474435 0.352721,0.339967 0.808529,0.795633 1.012814,1.01271 0.471772,0.501277 0.819541,0.727822 1.057012,0.688507 0.102815,-0.01728 0.420406,-0.131142 0.705732,-0.253557 z"
    id="path106" />
  <path
    style="fill:#000000;stroke-width:0.1"
    d="m 42.607516,45.557183 c 1.422707,-0.778253 2.845416,-2.357578 3.25451,-3.612771 0.19997,-0.613549 0.186649,-0.79908 -0.06668,-0.928147 -0.202901,-0.103416 -0.211351,-0.09324 -0.38322,0.461575 -0.48477,1.564841 -1.731326,2.955952 -3.306668,3.69009 -0.270701,0.126109 -0.62904,0.252347 -0.796307,0.280437 -0.341551,0.05737 -0.364461,0.114269 -0.148418,0.368627 0.202548,0.238444 0.69882,0.149325 1.446743,-0.25976 z"
    id="path105" />
  <path
    id="path5-3"
    style="fill:none;stroke:#000000;stroke-width:2"
    d="M 27.829611,15.465759 A 12.41631,12.41631 0 0 1 15.413301,27.88207 12.41631,12.41631 0 0 1 2.9969906,15.46576 12.41631,12.41631 0 0 1 15.413301,3.0494491 12.41631,12.41631 0 0 1 27.829611,15.465759 Z" />
  <path
    id="path5-3-6"
    style="fill:none;stroke:#000000;stroke-width:2"
    d="M 24.869502,15.465759 A 9.4561999,9.4561999 0 0 1 15.413301,24.92196 9.4561999,9.4561999 0 0 1 5.9571013,15.465759 9.4561999,9.4561999 0 0 1 15.413301,6.0095592 9.4561999,9.4561999 0 0 1 24.869502,15.465759 Z" />
</svg>
