<svg
   viewBox="0 0 48 48"
   width="48"
   height="48"
   xmlns="http://www.w3.org/2000/svg">
   <path
      d="M 24.000001,18.000001 C 27.300001,18.000001 30,20.7 30,24.000002 30,27.300002 27.300001,30 24.000002,30 20.7,30 18.000001,27.300001 18.000001,24.000002 18.000001,20.7 20.7,18.000001 24.000002,18.000001 m 0,-4 c -5.520001,0 -10.000001,4.48 -10.000001,10.000001 0,5.519998 4.48,9.999999 10.000001,9.999999 5.519998,0 9.999999,-4.480001 9.999999,-9.999999 0,-5.520001 -4.480001,-10.000001 -9.999999,-10.000001 z m -20.000001,12 h 3.9999998 c 1.1000003,0 2.0000002,-0.900001 2.0000002,-1.999999 0,-1.100002 -0.8999999,-2.000001 -2.0000002,-2.000001 H 4.000001 c -1.1000001,0 -2,0.899999 -2,2 0,1.099999 0.8999999,2 2,2 z m 35.999998,0 H 44 c 1.100001,0 1.999999,-0.900001 1.999999,-2 0,-1.100001 -0.899998,-2 -1.999999,-2 h -4.000001 c -1.099998,0 -2,0.899999 -2,2.000001 0,1.099998 0.900002,1.999999 2,1.999999 z m -17.999998,-22 v 3.9999998 c 0,1.1000003 0.899999,2.0000002 2.000001,2.0000002 1.099998,0 1.999999,-0.8999999 1.999999,-2.0000002 V 4.000001 c 0,-1.1000001 -0.900001,-2 -2,-2 -1.100001,0 -2,0.8999999 -2,2 z m 0,35.999998 V 44 c 0,1.100001 0.899999,1.999999 2,1.999999 1.099999,0 2,-0.899998 2,-1.999999 v -4.000001 c 0,-1.099998 -0.900001,-2 -1.999999,-2 -1.100002,0 -2.000001,0.900002 -2.000001,2 z m -10.02,-30.8399979 c -0.780001,-0.7800003 -2.0600009,-0.7800003 -2.8199999,0 -0.7800003,0.78 -0.7800003,2.0599989 0,2.8199999 L 11.280001,14.1 c 0.779999,0.780001 2.06,0.780001 2.819999,0 0.760001,-0.779999 0.780001,-2.059999 0,-2.819999 z M 36.72,33.899999 c -0.779998,-0.78 -2.059999,-0.78 -2.820001,0 -0.78,0.780001 -0.78,2.060002 0,2.820001 L 36.02,38.839999 c 0.780001,0.78 2.06,0.78 2.819999,0 0.78,-0.779999 0.78,-2.059999 0,-2.819999 z m 2.119999,-21.919998 c 0.78,-0.780001 0.78,-2.0599999 0,-2.8199999 C 38.06,8.3800008 36.78,8.3800008 36.02,9.1600011 l -2.120001,2.1199999 c -0.78,0.779999 -0.78,2.06 0,2.819999 0.780001,0.760001 2.060002,0.780001 2.820001,0 z M 14.1,36.72 c 0.780001,-0.779998 0.780001,-2.059999 0,-2.820001 -0.779999,-0.78 -2.059999,-0.78 -2.819999,0 L 9.1600011,36.02 c -0.7800003,0.780001 -0.7800003,2.06 0,2.819999 0.78,0.760001 2.0599989,0.78 2.8199999,0 z"
      fill="currentColor"
      style="stroke-width:1.27273" />
</svg>
