<svg
   width="48"
   height="48"
   viewBox="0 0 48 48"
   xmlns="http://www.w3.org/2000/svg">
   <path
      style="color:#000000;fill:#000000;stroke-width:1;"
      d="M 34.155659,2.156674 C 33.049119,2.1370417 31.95511,2.1896535 30.965195,2.3383755 29.645309,2.5366712 28.49187,2.8699894 27.72307,3.6387881 L 4.0626867,27.299171 c -0.7091913,0.709192 -0.7091904,1.88451 0,2.5937 L 15.921381,41.751566 c 0.709191,0.70919 1.883706,0.709996 2.593699,0 L 42.175464,18.091181 c 0.7688,-0.768798 1.102117,-1.922238 1.300412,-3.242124 0.198297,-1.319887 0.224303,-2.825452 0.138949,-4.298487 C 43.529473,9.0775358 43.333962,7.6421025 43.071502,6.4676309 42.940272,5.8803951 42.792849,5.3571779 42.626154,4.9178241 42.459461,4.4784712 42.299588,4.1245325 41.995544,3.8204896 41.6915,3.5164467 41.335781,3.3547924 40.896428,3.1880971 40.457075,3.0214046 39.933857,2.8739807 39.346621,2.7427504 38.172151,2.4802906 36.736716,2.2847824 35.263682,2.1994273 34.895423,2.1780894 34.524506,2.1632181 34.155659,2.156674 Z m -0.02494,1.4607375 c 0.348578,0.00595 0.69978,0.018941 1.049237,0.039191 1.397826,0.080992 2.772437,0.2705484 3.849578,0.5112581 0.53857,0.1203548 1.003719,0.2557447 1.34851,0.386561 0.34479,0.1308163 0.570423,0.28362 0.584295,0.2974916 0.01387,0.013873 0.168458,0.2395018 0.299273,0.584295 0.130815,0.3447914 0.264424,0.81172 0.38478,1.3502914 0.240709,1.0771393 0.430263,2.4499702 0.511257,3.8477954 0.081,1.397826 0.05342,2.823741 -0.122915,3.997434 -0.176332,1.17369 -0.539728,2.075284 -0.890694,2.426249 L 17.481875,40.720142 c -0.155195,0.155194 -0.373074,0.154211 -0.529071,-0.0018 L 5.0941098,28.859667 c -0.1559976,-0.155996 -0.1559967,-0.371294 0,-0.527291 L 28.756275,4.6702112 C 29.10724,4.3192461 30.008831,3.9558499 31.182524,3.7795177 32.062793,3.6472686 33.084987,3.5995691 34.130719,3.6174115 Z m 1.66916,3.4790491 c -0.74842,0 -1.496771,0.2854278 -2.064627,0.8532844 -1.135715,1.1357141 -1.135714,2.993542 0,4.129255 1.135713,1.135714 2.99354,1.135714 4.129254,0 1.135714,-1.135713 1.135714,-2.9935409 0,-4.129255 C 37.29665,7.3818884 36.548299,7.0964606 35.799879,7.0964606 Z m 0,1.0884274 c 0.4659,0 0.93287,0.1793429 1.291506,0.537979 0.717272,0.7172722 0.717272,1.863958 0,2.58123 -0.717272,0.717271 -1.863958,0.717271 -2.58123,0 -0.717272,-0.717272 -0.717272,-1.8639578 0,-2.58123 0.358636,-0.3586361 0.823825,-0.537979 1.289724,-0.537979 z m 0,0.735713 c -0.280992,0 -0.560844,0.1065905 -0.773122,0.3188682 -0.424554,0.4245539 -0.424554,1.1234708 0,1.5480258 0.424556,0.424555 1.12347,0.424555 1.548026,0 0.424554,-0.424555 0.424554,-1.1234719 0,-1.5480258 C 36.362509,9.0271915 36.080875,8.920601 35.799883,8.920601 Z m 0,0.7250247 c 0.09264,0 0.185505,0.03765 0.258301,0.1104463 0.145594,0.1455937 0.145594,0.371007 0,0.516602 -0.145594,0.145594 -0.369226,0.145594 -0.514821,0 -0.145593,-0.145595 -0.145594,-0.3710083 0,-0.516602 0.0728,-0.072802 0.163875,-0.1104463 0.25652,-0.1104463 z M 22.895515,15.217804 c -0.343334,0 -0.68539,0.127816 -0.942354,0.38478 L 10.935278,26.620463 c -0.513927,0.513928 -0.513927,1.372561 0,1.886489 l 6.372022,6.372022 c 0.513929,0.513928 1.372561,0.513928 1.886488,0 l 11.01788,-11.01788 c 0.513928,-0.513927 0.513928,-1.37256 0,-1.886488 l -6.372022,-6.372022 c -0.256965,-0.256965 -0.600802,-0.38478 -0.944135,-0.38478 z m 0,1.507053 6.195664,6.193884 -10.839741,10.839741 -6.195664,-6.195665 z m -0.131823,3.714193 c -0.142539,0.0026 -0.286043,0.0598 -0.397249,0.171013 l -6.423682,6.423682 c -0.222414,0.222413 -0.228722,0.572903 -0.01426,0.787373 0.214471,0.214471 0.56496,0.208163 0.787373,-0.01426 l 6.423683,-6.423677 c 0.222413,-0.222413 0.228722,-0.572903 0.01426,-0.787373 -0.107235,-0.107236 -0.247585,-0.159353 -0.390124,-0.156762 z m 2.064627,2.064628 c -0.142538,0.0026 -0.286041,0.0598 -0.397248,0.171013 l -6.423683,6.423682 c -0.222413,0.222413 -0.228721,0.572902 -0.01426,0.787373 0.21447,0.21447 0.56496,0.208163 0.787373,-0.01426 l 6.423682,-6.423682 c 0.222413,-0.222413 0.228722,-0.572902 0.01426,-0.787373 -0.107236,-0.107236 -0.247586,-0.159353 -0.390125,-0.156762 z" />
   <path
      style="color:#000000;fill:#000000;stroke-width:1;"
      d="m 35.54336,10.272693 c 0.145597,0.145595 0.369228,0.145595 0.514821,0 0.145595,-0.145595 0.145595,-0.371009 0,-0.5166019 -0.02459,-0.024598 -0.05355,-0.038754 -0.08194,-0.055226 0.11759,0.1139714 0.150884,0.2879579 0.06413,0.4382209 -0.10295,0.178316 -0.31869,0.236554 -0.497007,0.133604 z" />
   <path
      style="color:#000000;fill:#000000;stroke-width:1;"
      d="m 36.396645,9.0969773 c -0.180397,-0.1166054 -0.388622,-0.176357 -0.596765,-0.176357 -0.28099,0 -0.560844,0.1065909 -0.773122,0.318868 -0.424553,0.424554 -0.424553,1.1234707 0,1.5480257 0.02439,0.02439 0.05228,0.04254 0.07838,0.06413 0.02456,0.01705 0.04673,0.03646 0.07304,0.05166 0.51997,0.300205 1.194376,0.119159 1.494584,-0.400812 0.259594,-0.449633 0.159637,-1.0149405 -0.208423,-1.3538539 -0.01573,-0.012021 -0.03007,-0.02635 -0.04631,-0.037413 -0.0066,-0.00538 -0.01469,-0.00903 -0.02138,-0.014256 z m -0.62883,0.4952258 c 0.04719,0.00648 0.09437,0.022355 0.138949,0.048093 0.02806,0.016198 0.04752,0.039292 0.06947,0.060571 0.02839,0.016472 0.05735,0.030627 0.08194,0.055226 0.145595,0.1455929 0.145595,0.3710069 0,0.5166019 -0.145592,0.145594 -0.369225,0.145594 -0.51482,0 C 35.365039,10.169743 35.3068,9.952222 35.40975,9.7739068 c 0.05148,-0.089164 0.129622,-0.1488152 0.21911,-0.1727944 0.04475,-0.011994 0.09176,-0.015432 0.138949,-0.00894 z" />
   <path
      style="color:#000000;fill:#000000;stroke-width:1;"
      d="m 35.648463,8.8653972 c -0.07032,0.00502 -0.138787,0.017448 -0.206641,0.035626 -0.271416,0.072728 -0.514355,0.2477091 -0.664457,0.5076956 -0.285012,0.4936534 -0.13295,1.1231742 0.327776,1.4429232 -0.0261,-0.02159 -0.054,-0.03974 -0.07838,-0.06413 -0.424553,-0.424555 -0.424553,-1.1234722 0,-1.5480262 0.212278,-0.212278 0.49213,-0.3188689 0.773122,-0.3188689 0.208144,0 0.416368,0.05975 0.596765,0.1763579 -0.03988,-0.031311 -0.07962,-0.063042 -0.124697,-0.089073 -0.19499,-0.1125777 -0.412525,-0.1577006 -0.623485,-0.142511 z" />
   <path
      style="color:#000000;fill:#000000;stroke-width:1;"
      d="m 34.658011,11.425251 c 0.719493,0.584599 1.762313,0.549928 2.433375,-0.121135 0.717271,-0.717271 0.717271,-1.8639586 0,-2.5812298 -0.03793,-0.037933 -0.0809,-0.065833 -0.121135,-0.099758 0.611063,0.5668407 0.770907,1.4893618 0.334901,2.2445478 -0.507187,0.878474 -1.613686,1.175207 -2.49216,0.66802 -0.05622,-0.03246 -0.103584,-0.07329 -0.154981,-0.110445 z" />
   <path
      style="color:#000000;fill:#000000;stroke-width:1;"
      d="M 37.526046,7.6629612 C 37.01491,7.2879243 36.407803,7.0964799 35.799881,7.0964799 c -0.748419,0 -1.496771,0.2854278 -2.064627,0.8532845 -1.135714,1.1357126 -1.135713,2.9935436 0,4.1292546 0.06406,0.06406 0.131111,0.123082 0.199515,0.17992 0.10432,0.08118 0.212012,0.158372 0.329557,0.226237 1.390957,0.80307 3.185454,0.322126 3.988525,-1.068833 0.732745,-1.269149 0.394288,-2.8719599 -0.726805,-3.7533818 z m -1.931024,0.468505 c 0.350358,-0.024252 0.712683,0.053858 1.042111,0.2440499 0.04716,0.027234 0.08626,0.062066 0.130041,0.092632 0.03514,0.022118 0.0676,0.048294 0.101539,0.073038 0.03411,0.027408 0.06984,0.052544 0.101539,0.08194 0.04023,0.03392 0.0832,0.06182 0.121135,0.099758 0.717271,0.7172712 0.717271,1.8639589 0,2.5812299 -0.671063,0.671063 -1.713883,0.705734 -2.433375,0.121135 -0.751714,-0.543482 -0.987768,-1.5594589 -0.51304,-2.3817148 0.253594,-0.4392375 0.656218,-0.7327015 1.106242,-0.8532845 0.112507,-0.030144 0.227022,-0.050702 0.343808,-0.058784 z" />
   <path
      style="color:#000000;fill:#000000;stroke-width:1;"
      d="m 35.521985,7.0448193 c -0.187221,0.01328 -0.371501,0.044208 -0.55223,0.092633 -0.722917,0.1937046 -1.372727,0.663719 -1.774261,1.359198 -0.735208,1.2734141 -0.390873,2.8827977 0.739275,3.7622887 -0.0684,-0.05684 -0.135449,-0.115853 -0.199515,-0.17992 -1.135713,-1.135711 -1.135714,-2.9935416 0,-4.1292542 0.567856,-0.5678567 1.316208,-0.8532845 2.064627,-0.8532845 0.607922,0 1.215029,0.1914444 1.726165,0.5664813 C 37.418447,7.5783667 37.305826,7.4981438 37.184019,7.4278177 36.662406,7.1266676 36.083645,7.0049883 35.521985,7.0448193 Z" />
   <path
      style="color:#000000;fill:#000000;stroke-width:1;"
      d="m 23.597378,36.669287 -1.068832,1.068832 1.768917,1.022517 c 0.629432,0.363402 1.458959,0.14133 1.822359,-0.488101 l 5.634528,-9.760219 -3.984963,3.984962 -2.850219,4.936225 z" />
   <path
      style="color:#000000;fill:#000000;stroke-width:1;"
      d="m 22.28806,35.913979 -1.068833,1.068832 1.30932,0.755308 1.068831,-1.068832 z" />
   <path
      style="color:#000000;fill:#000000;stroke-width:1;"
      d="m 40.019986,4.4368686 c 0.16416,0.2565653 0.336834,0.5450011 0.516603,0.8889127 0.496227,0.9493192 1.015693,2.1814841 1.448267,3.4683604 C 41.892894,8.0664328 41.779015,7.3799814 41.646393,6.7865183 41.526037,6.2479472 41.392427,5.7810184 41.261614,5.4362266 41.130798,5.091434 40.976213,4.8658042 40.96234,4.8519317 40.948468,4.8380591 40.722835,4.6852563 40.378046,4.5544408 c -0.102519,-0.0389 -0.235494,-0.078383 -0.35806,-0.1175722 z" />
   <path
      style="color:#000000;fill:#000000;stroke-width:1;"
      d="m 43.418873,8.4752738 c 0.08736,0.666913 0.154855,1.3660293 0.195953,2.0753152 0.08535,1.473034 0.05935,2.978601 -0.138949,4.298487 -0.198296,1.319885 -0.531613,2.473327 -1.300412,3.242125 l -2.444064,2.444063 -13.754089,23.822491 c -0.10974,0.190072 -0.320191,0.245728 -0.511259,0.135384 l -6.144004,-3.548523 -0.806968,0.806969 c -0.09268,0.09268 -0.194607,0.172023 -0.301055,0.240487 l 6.52344,3.765853 c 0.868577,0.501471 2.00259,0.19798 2.504631,-0.671583 L 43.972885,16.108517 c 0.543623,-0.941581 0.566918,-2.142128 0.416845,-3.468361 -0.14925,-1.318982 -0.510779,-2.7711424 -0.970857,-4.1648822 z" />
   <path
      style="color:#000000;fill:#000000;stroke-width:1;"
      d="m 40.958777,3.2148374 c -0.02225,-0.00857 -0.03965,-0.018105 -0.06235,-0.026724 -0.439352,-0.1666923 -0.96257,-0.3141166 -1.549806,-0.4453471 -1.174468,-0.2624592 -2.609906,-0.4579678 -4.082939,-0.543323 -0.0078,-4.46e-4 -0.01545,-0.00137 -0.02316,-0.00182 -0.667252,0.088252 -1.361233,0.2051684 -2.057502,0.3491523 -0.361235,0.074699 -0.723332,0.1566836 -1.081302,0.2458312 -1.073915,0.2674185 -2.116008,0.6012712 -3.033701,1.0011328 -1.223588,0.5331506 -2.251373,1.1533292 -2.794996,2.0949113 l -1.727945,2.9927303 4.211199,-4.2111987 c 0.350966,-0.3509655 1.252558,-0.7143617 2.426249,-0.890694 0.880268,-0.1322493 1.902465,-0.1799487 2.948195,-0.1621059 0.348578,0.00593 0.699781,0.018944 1.049238,0.039192 0.04068,0.00237 0.0805,0.00638 0.121134,0.00894 0.727448,-0.099696 1.421233,-0.1668851 2.029,-0.1923902 0.551368,-0.023139 1.036832,-0.012176 1.403733,0.024936 0.366899,0.037121 0.624309,0.1255775 0.641299,0.1353859 0.01699,0.00981 0.224406,0.1889134 0.440003,0.4880998 0.06399,0.088799 0.135573,0.2070144 0.204859,0.3153054 0.122567,0.039192 0.255542,0.078675 0.35806,0.1175713 0.344789,0.1308164 0.570422,0.2836201 0.584295,0.2974918 0.01387,0.013873 0.168457,0.2395023 0.299273,0.584295 0.130813,0.3447908 0.264423,0.8117206 0.384779,1.3502916 0.132622,0.5934622 0.2465,1.2799146 0.338463,2.0076235 0.01313,0.039064 0.02801,0.076632 0.04097,0.11579 0.440026,1.3292303 0.782186,2.7129933 0.915634,3.8923303 0.133449,1.179335 0.01659,2.144263 -0.231581,2.574105 l -2.978479,5.158897 2.444063,-2.444064 c 0.768799,-0.768797 1.102117,-1.92224 1.300413,-3.242124 0.198296,-1.319886 0.224302,-2.825453 0.138948,-4.298487 -0.0411,-0.7092859 -0.108596,-1.4084023 -0.195953,-2.0753162 -0.0026,-0.00766 -0.0046,-0.015496 -0.0071,-0.023157 C 42.948069,7.0513469 42.387381,5.7153565 41.829889,4.6488335 41.551143,4.1155735 41.27449,3.647717 40.999762,3.2664771 c -0.01383,-0.01919 -0.02727,-0.03288 -0.04097,-0.05166 z" />
   <path
      style="color:#000000;fill:#000000;stroke-width:1;"
      d="m 38.124592,2.001712 c -0.269477,-0.00447 -0.556253,-1.441e-4 -0.856848,0.012468 -0.622989,0.02614 -1.309758,0.088589 -2.027219,0.183483 0.0078,4.414e-4 0.01545,0.00137 0.02316,0.00173 1.473033,0.085351 2.908471,0.2808638 4.082939,0.5433239 0.587236,0.1312295 1.110453,0.2786538 1.549807,0.4453465 0.0227,0.00857 0.04008,0.018114 0.06235,0.026724 C 40.700252,2.8604753 40.459125,2.5745833 40.105493,2.3704145 39.733119,2.155425 39.347425,2.0917233 38.879899,2.0444206 38.646136,2.0207706 38.394068,2.0061683 38.124592,2.0016718 Z" />
</svg>
