<svg
   width="48"
   height="48"
   viewBox="0 0 48 48"
   xmlns="http://www.w3.org/2000/svg">
   <path
      d="M 25.762349,27.789781 H 22.23765 L 20.625971,12.999999 h 6.748057 z m -1.7529,7.210218 c -0.80584,0 -1.494891,-0.256932 -2.067154,-0.770802 -0.560584,-0.513869 -0.840876,-1.145499 -0.840876,-1.89489 0,-0.738686 0.280294,-1.364964 0.840876,-1.878832 0.560584,-0.524575 1.249635,-0.786863 2.067153,-0.786863 0.80584,0 1.489052,0.256932 2.049635,0.770803 0.572263,0.513869 0.858394,1.145499 0.858394,1.894892 0,0.738686 -0.280293,1.370316 -0.840876,1.89489 -0.560583,0.513868 -1.249634,0.770802 -2.067152,0.770802 z"
      style="stroke-width:3.77953" />
   <path
      d="M 43.500001,24 A 19.500002,19.500002 0 0 1 24,43.500001 19.500002,19.500002 0 0 1 4.499999,24 19.500002,19.500002 0 0 1 24,4.499999 19.500002,19.500002 0 0 1 43.500001,24 Z"
      style="fill:none;stroke:#000000;stroke-width:3;stroke-dasharray:none" />
</svg>
