<svg
   width="48"
   height="48"
   viewBox="0 0 48 48"
   xmlns="http://www.w3.org/2000/svg"
>
   <style>
      .key-top { fill: hsl(208deg 68% 27%); stroke: hsl(216deg 26% 89%); }
      .key-bottom, .key-right { fill: hsl(208deg 70% 25%); stroke: hsl(216deg 26% 89%); }
      .key-text { fill: hsl(216deg 22% 97%); }

      [data-theme="dark"] .key-top { fill: hsl(214deg 63% 80%); stroke: hsl(219deg 26% 18%); }
      [data-theme="dark"] .key-bottom, [data-theme="dark"] .key-right { fill: hsl(212deg 65% 78%);
      stroke: hsl(219deg 26% 18%); }
      [data-theme="dark"] .key-text { fill: hsl(215deg 30% 10%); }

      @media (prefers-color-scheme: dark) {
      .key-top { fill: hsl(214deg 63% 80%); stroke: hsl(219deg 26% 18%); }
      .key-bottom, .key-right { fill: hsl(212deg 65% 78%);
      stroke: hsl(219deg 26% 18%); }
      .key-text { fill: hsl(215deg 30% 10%); }
      [data-theme="light"] .key-top { fill: hsl(208deg 68% 27%); stroke: hsl(216deg 26% 89%); }
      [data-theme="light"] .key-bottom, [data-theme="light"] .key-right { fill: hsl(208deg 70% 25%);
      stroke: hsl(216deg 26% 89%); }
      [data-theme="light"] .key-text { fill: hsl(216deg 22% 97%); }
      }
   </style>
   <path
      class="key-bottom"
      d="M 0.5 34.171875 L 0.5 35.304688 C 0.5 40.922398 10.657247 47.5 15.779297 47.5 L 38.21875 47.5 C 40.713997 47.5 42.981936 46.414116 44.650391 44.650391 L 40.771484 40.771484 C 39.09235 42.455901 36.775459 43.5 34.21875 43.5 L 9.78125 43.5 C 4.659199 43.5 0.5 39.311484 0.5 34.171875 z"
   />
   <path
      class="key-right"
      d="M 39.476562,2.1445312 C 41.905718,3.8290502 43.5,6.6465099 43.5,9.828125 v 24.34375 c 0,2.574136 -1.043712,4.909505 -2.728516,6.599609 l 3.878907,3.878907 C 46.406811,42.793676 47.5,40.185686 47.5,37.304688 V 12.695312 C 47.5,8.803793 43.584801,4.4517188 39.476562,2.1445312 Z"
   />
   <path
      class="key-top"
      d="m 9.780275,0.5000005 c -5.122051,0 -9.280274,4.187905 -9.280274,9.327514 V 34.172485 C 0.500001,39.312094 4.658224,43.5 9.780275,43.5 H 34.219727 C 39.341777,43.5 43.5,39.312094 43.5,34.172485 V 9.8275145 c 0,-5.139609 -4.158223,-9.327514 -9.280273,-9.327514 z"
   />
   <path
      class="key-text"
      d="M 7.4583554,29.760405 12.906263,14.239596 h 4.124994 l 5.447908,15.520809 H 18.927087 L 16.489591,22.208333 Q 16.041675,20.718752 15.562509,19.145838 15.09376,17.562507 14.541677,15.552094 h 0.885416 q -0.572916,2.010413 -1.052082,3.593744 -0.468749,1.572914 -0.937499,3.062495 l -2.520829,7.552072 z m 3.4583276,-3.385412 v -2.562496 h 8.11457 v 2.562496 z m 13.822898,3.385412 V 14.239596 h 6.12499 q 1.749998,0 3.020829,0.624999 1.270831,0.614582 1.95833,1.760414 0.697916,1.135415 0.697916,2.708329 0,1.562497 -0.697916,2.708329 -0.697916,1.135415 -1.98958,1.760414 -1.281248,0.624999 -3.031245,0.624999 h -4.302077 v -2.687496 h 4.13541 q 0.854166,0 1.468748,-0.291666 0.614582,-0.302083 0.947915,-0.843749 0.333333,-0.541666 0.333333,-1.270831 0,-0.749999 -0.333333,-1.281248 -0.333333,-0.531249 -0.947915,-0.822916 -0.614582,-0.302082 -1.468748,-0.302082 h -2.708329 v 12.833313 z"
   />
</svg>
