<svg
   width="48"
   height="48"
   viewBox="0 0 48 48"
   xmlns="http://www.w3.org/2000/svg">
   <style>
      .path { fill: hsl(208, 52%, 27%); }

      [data-theme="dark"] .path { fill: hsl(205deg 65% 78%); }

      @media (prefers-color-scheme: dark) {
      .path { fill: hsl(205, 65%, 78%) }
      [data-theme="light"] .path { fill: hsl(208, 52%, 27%); }
      }
   </style>
   <path
      class="path"
      d="M 10.359375,0 C 4.6417371,0 0,4.6748708 0,10.412109 V 37.587891 C 0,43.325129 4.641737,48 10.359375,48 h 27.28125 C 43.358263,48 48,43.325129 48,37.587891 V 10.412109 C 48,4.6748708 43.358263,0 37.640625,0 Z m 0,3 h 27.28125 C 41.738599,3 45,6.2754791 45,10.412109 V 37.587891 C 45,41.72452 41.738599,45 37.640625,45 H 10.359375 C 6.2614018,45 3,41.72452 3,37.587891 V 10.412109 C 3,6.2754792 6.2614017,3 10.359375,3 Z" />
   <path
      class="path"
      d="m 8,32.7358 5.968488,-17.4716 h 4.690362 l 6.120923,17.4716 H 20.80469 L 19.456211,28.678638 H 13.253207 L 11.951632,32.7358 Z m 6.144376,-6.859656 h 4.385489 l -0.527666,-1.571273 q -0.422132,-1.336751 -0.844265,-2.896299 -0.422133,-1.559542 -0.879444,-3.34188 -0.433858,1.805789 -0.832539,3.365336 -0.39868,1.559542 -0.797361,2.872843 z M 26.937339,32.7358 V 15.2642 h 6.812752 q 1.993405,0 3.388788,0.762184 1.395382,0.750457 2.122388,2.087209 Q 40,19.438619 40,21.162331 q 0,1.735431 -0.750458,3.060458 -0.738733,1.313302 -2.157566,2.06376 -1.418836,0.738732 -3.423966,0.738732 H 30.513741 V 32.7358 Z m 3.576402,-8.595093 h 2.5797 q 1.641626,0 2.427262,-0.832533 0.785636,-0.832541 0.785636,-2.145843 0,-1.325026 -0.785636,-2.134116 -0.785636,-0.809089 -2.438989,-0.809089 h -2.567973 z" />
</svg>
