<svg
   width="48"
   height="48"
   viewBox="0 0 48 48"
   xmlns="http://www.w3.org/2000/svg"
>
   <style>
      .key-top { fill: hsl(208deg 68% 27%); stroke: hsl(216deg 26% 89%); }
      .key-bottom, .key-right { fill: hsl(208deg 70% 25%); stroke: hsl(216deg 26% 89%); }
      .key-text { fill: hsl(216deg 22% 97%); }

      [data-theme="dark"] .key-top { fill: hsl(214deg 63% 80%); stroke: hsl(219deg 26% 18%); }
      [data-theme="dark"] .key-bottom, [data-theme="dark"] .key-right { fill: hsl(212deg 65% 78%);
      stroke: hsl(219deg 26% 18%); }
      [data-theme="dark"] .key-text { fill: hsl(215deg 30% 10%); }

      @media (prefers-color-scheme: dark) {
      .key-top { fill: hsl(214deg 63% 80%); stroke: hsl(219deg 26% 18%); }
      .key-bottom, .key-right { fill: hsl(212deg 65% 78%);
      stroke: hsl(219deg 26% 18%); }
      .key-text { fill: hsl(215deg 30% 10%); }
      [data-theme="light"] .key-top { fill: hsl(208deg 68% 27%); stroke: hsl(216deg 26% 89%); }
      [data-theme="light"] .key-bottom, [data-theme="light"] .key-right { fill: hsl(208deg 70% 25%);
      stroke: hsl(216deg 26% 89%); }
      [data-theme="light"] .key-text { fill: hsl(216deg 22% 97%); }
      }
   </style>
   <path
      class="key-bottom"
      d="M 43.771484 43.771484 C 42.09235 45.455902 39.775459 46.5 37.21875 46.5 L 12.78125 46.5 C 10.484678 46.5 8.380874 45.657754 6.7597656 44.265625 C 8.4622573 46.244662 10.977513 47.5 13.78125 47.5 L 36.220703 47.5 C 39.76513 47.5 42.542477 46.380247 44.455078 44.455078 L 43.771484 43.771484 z "
   />
   <path
      class="key-right"
      d="M 44.242188 6.7363281 C 45.648755 8.3723462 46.5 10.502736 46.5 12.828125 L 46.5 37.171875 C 46.5 39.746011 45.456288 42.08138 43.771484 43.771484 L 44.455078 44.455078 C 46.447113 42.449954 47.5 39.570491 47.5 36.171875 L 47.5 13.828125 C 47.5 10.993642 46.235544 8.4492227 44.242188 6.7363281 z "
   />
   <path
      class="key-top"
      d="M 12.780274,3.5 C 7.658223,3.5 3.5,7.687905 3.5,12.827515 v 24.34497 C 3.5,42.312094 7.658223,46.5 12.780274,46.5 h 24.439452 c 5.12205,0 9.280273,-4.187906 9.280273,-9.327515 V 12.827515 C 46.499999,7.687905 42.341776,3.5 37.219726,3.5 Z"
   />
   <path
      class="key-text"
      d="m 10.458354,32.760404 5.447908,-15.520809 h 4.124994 l 5.447908,15.520809 H 21.927086 L 19.48959,25.208332 q -0.447916,-1.489581 -0.927082,-3.062495 -0.468749,-1.583331 -1.020832,-3.593744 h 0.885416 q -0.572916,2.010413 -1.052082,3.593744 -0.468749,1.572914 -0.937499,3.062495 l -2.520829,7.552072 z m 3.458328,-3.385412 v -2.562495 h 8.11457 v 2.562495 z M 27.73958,32.760404 V 17.239595 h 6.12499 q 1.749998,0 3.020829,0.625 1.270831,0.614581 1.95833,1.760414 0.697916,1.135415 0.697916,2.708329 0,1.562497 -0.697916,2.708329 -0.697916,1.135414 -1.98958,1.760414 -1.281248,0.624999 -3.031245,0.624999 h -4.302077 v -2.687496 h 4.13541 q 0.854166,0 1.468748,-0.291666 0.614582,-0.302083 0.947915,-0.843749 0.333333,-0.541666 0.333333,-1.270831 0,-0.749999 -0.333333,-1.281249 -0.333333,-0.531248 -0.947915,-0.822915 -0.614582,-0.302082 -1.468748,-0.302082 h -2.708329 v 12.833313 z"
   />
</svg>
