<svg
   width="80"
   height="80"
   viewBox="0 0 80 80"
   xmlns="http://www.w3.org/2000/svg">
   <path
      d="M 17.340986,9.5218366 C 26.512817,16.407597 36.377606,30.369344 40.000001,37.861175 43.622395,30.369344 53.487184,16.407597 62.659014,9.5218366 69.276902,4.553452 80,0.70914632 80,12.941935 80,15.384921 78.599297,33.464837 77.777747,36.40033 74.922114,46.604978 64.516479,49.207795 55.260142,47.632443 71.439719,50.386105 75.555494,59.507231 66.666621,68.628359 49.78493,85.951176 42.402958,64.28202 40.511409,58.729626 c -0.346761,-1.017887 -0.509014,-1.494085 -0.511408,-1.089155 -0.0024,-0.40493 -0.164648,0.07126 -0.511409,1.089155 -1.89155,5.552394 -9.273522,27.22155 -26.155254,9.898733 C 4.4444507,59.507231 8.5602536,50.386105 24.739859,47.632443 15.483522,49.207795 5.0779578,46.604978 2.2222254,36.40033 1.4007394,33.464837 0,15.384921 0,12.941935 0,0.70914632 10.723169,4.553452 17.340986,9.5218366 Z"
      fill="#000000" />
</svg>
