<svg
   width="80"
   height="80"
   viewBox="0 0 80 80"
   xmlns="http://www.w3.org/2000/svg">
   <path
      d="m 50.857873,73.092136 c -2.239936,-3.126304 -5.7348,-8.00756 -7.766368,-10.84724 -2.074968,-2.900328 -3.763064,-5.163936 -3.851888,-5.165088 -0.09127,-8e-4 -3.35584,4.387176 -7.721888,10.380048 -4.16008,5.710152 -7.598384,10.382088 -7.64068,10.382088 -0.11832,0 -14.9980319,-10.480696 -15.0363359,-10.591008 -0.01856,-0.05336 3.3452639,-4.991304 7.4751039,-10.973184 4.129832,-5.98188 7.508792,-10.970416 7.508792,-11.085632 0,-0.185792 -1.338272,-0.65564 -11.835576,-4.15524 C 5.4794655,38.866704 0.08970556,37.066232 0.01179356,37.035816 c -0.108368,-0.04232 0.511376,-2.115888 2.63735994,-8.824208 1.528456,-4.822896 2.813584,-8.80828 2.855832,-8.856408 0.04224,-0.04816 5.6998245,1.762304 12.5723995,4.023168 6.872568,2.260872 12.553088,4.110632 12.623376,4.110568 0.07032,-6.4e-5 0.1498,-0.105232 0.176688,-0.233712 0.02688,-0.128472 0.08618,-5.98008 0.131752,-13.003559 0.0456,-7.0234803 0.120664,-12.8283683 0.166864,-12.8997443 0.06616,-0.1022 1.996656,-0.12944 9.08432,-0.128184 4.950184,8e-4 9.051912,0.03592 9.114952,0.07784 0.07944,0.05288 0.21524,3.914168 0.442648,12.5866883 0.373384,14.240271 0.381432,14.431103 0.608512,14.431103 0.08806,0 5.534752,-1.823152 12.103768,-4.051448 6.569016,-2.228304 11.975696,-4.01532 12.01484,-3.971152 0.132712,0.149728 5.520623,17.690424 5.454288,17.75676 -0.03624,0.03624 -5.518624,1.913776 -12.183088,4.17232 -9.167752,3.106888 -12.125184,4.148752 -12.15,4.28028 -0.01832,0.09711 3.134352,4.808536 7.14316,10.674872 3.946784,5.775568 7.161488,10.544104 7.143792,10.596744 -0.04064,0.120912 -14.808104,10.99856 -14.9316,10.99856 -0.05016,0 -1.923848,-2.55788 -4.163784,-5.684192 z" />
</svg>
