<svg
   width="80"
   height="80"
   viewBox="0 0 80 80"
   xmlns="http://www.w3.org/2000/svg">
   <path
      d="m 40,0.242969 c -22.091384,0 -40,17.908616 -40,40 0,19.965136 14.627441,36.513269 33.75,39.514062 V 51.805469 H 23.59375 v -11.5625 H 33.75 v -8.8125 c 0,-0.626562 0.02278,-1.235315 0.06875,-1.826562 0.04597,-0.591248 0.115682,-1.164894 0.20625,-1.720313 0.09057,-0.555419 0.202142,-1.093421 0.335937,-1.6125 0.133795,-0.519079 0.289972,-1.019336 0.465625,-1.501563 0.175653,-0.482225 0.37136,-0.945764 0.5875,-1.390624 0.21614,-0.444861 0.452556,-0.871144 0.707813,-1.278125 0.255257,-0.406983 0.528871,-0.795472 0.821875,-1.164063 0.293003,-0.368591 0.604995,-0.717188 0.934374,-1.046875 0.32938,-0.329687 0.67624,-0.639417 1.040626,-0.929688 0.364385,-0.29027 0.745729,-0.560596 1.14375,-0.810937 0.39802,-0.250341 0.813464,-0.480725 1.243749,-0.690625 0.430286,-0.209899 0.876321,-0.399805 1.337501,-0.56875 1.844719,-0.675781 3.929846,-1.021875 6.214062,-1.021875 2.188162,0 4.427316,0.195313 6.11875,0.390625 1.691434,0.195313 2.835938,0.390625 2.835938,0.390625 v 9.84375 h -5.04375 c -3.726734,0 -5.52969,1.734235 -6.198438,3.935938 -0.111458,0.36695 -0.191672,0.747328 -0.24375,1.134375 -0.05208,0.387045 -0.07656,0.781152 -0.07656,1.176562 v 7.503125 H 57.34375 l -1.773437,11.5625 H 46.25 V 79.757031 C 65.372559,76.756238 80,60.208105 80,40.242969 c 0,-22.091384 -17.908616,-40 -40,-40 z" />
</svg>
