<svg
   width="80"
   height="80"
   viewBox="0 0 80 80"
   xmlns="http://www.w3.org/2000/svg">
   <path
      d="M 40.003682,0.98730089 C 62.091531,0.98730089 80,18.89577 80,40.98853 80,58.661264 68.539857,73.652517 52.644954,78.94427 c -2.001288,0.36588 -2.730593,-0.869272 -2.730593,-1.930078 0,-0.94785 0.03438,-3.464809 0.05402,-6.801928 11.126185,2.41628 13.47371,-5.362964 13.47371,-5.362964 1.819577,-4.618926 4.442125,-5.849167 4.442125,-5.849167 3.631788,-2.482581 -0.275023,-2.43347 -0.275023,-2.43347 -4.014857,0.284847 -6.126647,4.122902 -6.126647,4.122902 -3.567942,6.111913 -9.363087,4.346358 -11.641855,3.324842 -0.363425,-2.585716 -1.394764,-4.348815 -2.539059,-5.348232 8.881795,-1.009239 18.220326,-4.442124 18.220326,-19.76979 0,-4.366003 -1.559286,-7.936402 -4.11799,-10.733295 0.412536,-1.011695 1.785199,-5.078118 -0.390435,-10.585961 0,0 -3.359219,-1.075539 -11.000952,4.100802 -3.189785,-0.886461 -6.612849,-1.330919 -10.013813,-1.345652 -3.396053,0.01474 -6.819117,0.459191 -10.013813,1.345652 -7.63682,-5.176341 -10.988673,-4.100802 -10.988673,-4.100802 -2.183001,5.507843 -0.810338,9.574266 -0.397802,10.585961 -2.563614,2.796893 -4.113078,6.367292 -4.113078,10.733295 0,15.366954 9.353264,18.748274 18.264524,19.737868 -1.436508,1.235152 -2.71586,3.675988 -2.71586,7.408454 0,5.345775 0.04911,9.660211 0.04911,10.971485 0,1.070628 -0.719481,2.315602 -2.750237,1.925167 C 11.450321,73.637783 0,58.656353 0,40.98853 0,18.89577 17.910924,0.98730089 40.003682,0.98730089" />
</svg>
