<svg
   width="80"
   height="80"
   viewBox="0 0 80 80"
   xmlns="http://www.w3.org/2000/svg">
   <path
      d="m 39.997156,76.841713 v 0 L 54.735205,31.507981 H 25.280671 Z" />
   <path
      d="m 4.6375919,31.508218 v 0 L 0.14952202,45.281169 c -0.40613039,1.250622 0.032472,2.631092 1.10442538,3.410658 L 39.997393,76.841713 Z" />
   <path
      d="M 4.6375919,31.508218 H 25.280671 L 16.396469,4.2059005 c -0.454706,-1.3968199 -2.436319,-1.3968199 -2.907375,0 z" />
   <path
      d="m 75.378519,31.508218 v 0 l 4.471957,13.772951 c 0.406132,1.250622 -0.03246,2.631092 -1.104424,3.410658 L 39.997156,76.841713 Z" />
   <path
      d="M 75.378519,31.508218 H 54.735442 L 63.603293,4.2059005 c 0.454706,-1.3968199 2.436319,-1.3968199 2.907375,0 z" />
   <polygon
      points="293.026,434.983 355.225,243.662 442.346,243.662 "
      transform="matrix(0.23694992,0,0,0.23694992,-29.435334,-26.227473)"
      style="stroke-width:1.25" />
   <polygon
      points="293.026,434.983 143.798,243.662 230.918,243.662 "
      transform="matrix(0.23694992,0,0,0.23694992,-29.435334,-26.227473)"
      style="stroke-width:1.25" />
</svg>
