<svg
   width="80"
   height="80"
   viewBox="0 0 80 80"
   xmlns="http://www.w3.org/2000/svg">
   <path
      d="m 76.074888,69.740666 a 1.2528623,1.2528623 0 0 0 1.263304,-1.324904 c 0,-0.939648 -0.56692,-1.388584 -1.73,-1.388584 h -1.879288 v 4.919568 h 0.706824 v -2.14448 h 0.868648 l 0.01984,0.02608 1.347872,2.118384 h 0.755888 l -1.450184,-2.192504 z m -0.817496,-0.492792 h -0.819576 v -1.663176 h 1.038832 c 0.53664,0 1.148456,0.0877 1.148456,0.790344 0,0.808096 -0.619128,0.872832 -1.371888,0.872832" />
   <path
      d="M 57.636888,63.575536 H 47.613989 V 47.879259 c 0,-3.742926 -0.06682,-8.561225 -5.212951,-8.561225 -5.22026,0 -6.018959,4.078066 -6.018959,8.288728 v 15.96773 H 26.35918 V 31.296583 h 9.621983 v 4.411119 h 0.134682 a 10.544925,10.544925 0 0 1 9.493565,-5.213995 c 10.158625,0 12.031654,6.681932 12.031654,15.374708 z M 15.05001,26.884419 a 5.8164133,5.8164133 0 1 1 5.815369,-5.817458 5.8164133,5.8164133 0 0 1 -5.815369,5.817458 m 5.011449,36.691117 H 10.02812 V 31.296583 H 20.061459 Z M 62.63372,5.9438702 H 4.9916126 A 4.9362775,4.9362775 0 0 0 7.75e-7,10.819592 V 68.700786 A 4.9394097,4.9394097 0 0 0 4.9916126,73.581729 H 62.63372 a 4.9498502,4.9498502 0 0 0 5.011448,-4.880943 V 10.815416 A 4.946718,4.946718 0 0 0 62.63372,5.9396942" />
   <path
      d="m 75.343008,64.835706 a 4.6126215,4.6126215 0 1 0 0.08874,0 h -0.08874 m 0,8.696951 A 4.0446571,4.0446571 0 1 1 79.3198,69.421186 c 0,0.02296 0,0.04488 0,0.06784 a 3.9580009,3.9580009 0 0 1 -3.871344,4.041519 h -0.104408" />
</svg>
