<svg
   width="80"
   height="80"
   viewBox="0 0 80 80"
   xmlns="http://www.w3.org/2000/svg">
   <path
      d="M 39.881403,-9.3832206e-8 C 29.653804,0.0836176 19.816296,1.1903634 14.082911,3.8234456 c 0,0 -11.3703377,5.0877735 -11.3703377,22.4422354 0,3.973975 -0.077419,8.725074 0.048438,13.764092 0.4129141,16.971718 3.1115663,33.698367 18.8031657,37.851644 7.235048,1.91501 13.447227,2.315619 18.450039,2.04063 9.072474,-0.502999 14.164093,-3.237507 14.164093,-3.237507 l -0.298438,-6.582827 c 0,0 -6.482925,2.044445 -13.764092,1.795317 -7.213929,-0.247403 -14.830146,-0.777433 -15.996909,-9.634396 -0.107751,-0.777987 -0.160938,-1.610708 -0.160938,-2.484381 0,0 7.081651,1.731002 16.056284,2.142193 5.487706,0.251711 10.634031,-0.321635 15.860972,-0.945315 10.023726,-1.196935 18.751543,-7.372349 19.84848,-13.015653 1.728379,-8.889722 1.584379,-21.693797 1.584379,-21.693797 C 77.308047,8.9112191 65.93771,3.8234456 65.93771,3.8234456 60.204756,1.1903634 50.360566,0.0836176 40.132967,-9.3832206e-8 Z M 28.306378,13.559404 c 4.260171,0 7.487232,1.638776 9.620334,4.914073 l 2.073442,3.475008 2.073442,-3.475008 c 2.132672,-3.275297 5.359731,-4.914073 9.620333,-4.914073 3.681746,0 6.647094,1.295425 8.912519,3.820321 2.196033,2.524896 3.290632,5.93662 3.290632,10.231272 V 48.625105 H 55.572062 V 28.229748 c 0,-4.299393 -1.80975,-6.482826 -5.428136,-6.482826 -4.000698,0 -6.006263,2.589073 -6.006263,7.707829 V 40.618838 H 35.862645 V 29.454751 c 0,-5.118756 -2.005565,-7.707829 -6.006263,-7.707829 -3.618386,0 -5.428137,2.183433 -5.428137,6.482826 V 48.625105 H 16.103227 V 27.610997 c 0,-4.294652 1.094171,-7.706376 3.290633,-10.231272 2.264993,-2.524896 5.230342,-3.820321 8.912518,-3.820321 z" />
</svg>
