<svg
   width="80"
   height="80"
   viewBox="0 0 80 80"
   xmlns="http://www.w3.org/2000/svg">
   <path
      d="M 40,0 A 40.000002,40.000002 0 0 0 0,40 40.000002,40.000002 0 0 0 40,80 40.000002,40.000002 0 0 0 80,40 40.000002,40.000002 0 0 0 40,0 Z m 16.701562,15.8125 c 2.292396,0 4.164063,1.871667 4.164063,4.164062 0,2.292396 -1.871667,4.164063 -4.164063,4.164063 -2.245612,0 -4.070494,-1.777735 -4.164062,-3.976563 l -8.654687,-1.825 -2.667188,12.490625 c 6.081867,0.233919 11.603085,2.105577 15.579688,4.959375 1.029239,-1.029239 2.432795,-1.6375 4.023437,-1.6375 3.228067,0 5.848437,2.620371 5.848437,5.848438 10e-7,2.385962 -1.450623,4.444017 -3.368749,5.379687 0.09357,0.561404 0.140624,1.123064 0.140624,1.731251 0,8.982448 -10.433044,16.234375 -23.345312,16.234375 -12.912268,0 -23.345312,-7.251927 -23.345312,-16.234375 0,-0.608187 0.04706,-1.216723 0.140624,-1.778125 -2.058476,-0.935672 -3.4625,-2.946851 -3.4625,-5.332813 0,-3.228067 2.62037,-5.848438 5.848438,-5.848438 1.543858,0 2.994199,0.655045 4.023438,1.6375 4.023388,-2.947365 9.590284,-4.77224 15.8125,-4.959375 l 2.946875,-13.940625 c 0.09357,-0.280701 0.234831,-0.514336 0.468749,-0.654687 0.233919,-0.140351 0.514612,-0.187409 0.795313,-0.140625 l 9.684375,2.057812 C 53.66122,16.748055 55.064138,15.8125 56.701562,15.8125 Z M 30.829687,40 c -2.292395,0 -4.1625,1.871666 -4.1625,4.164062 0,2.292396 1.870105,4.164063 4.1625,4.164063 2.292396,0 4.164063,-1.871667 4.164063,-4.164063 C 34.99375,41.871666 33.122083,40 30.829687,40 Z m 18.340626,0 c -2.292397,0 -4.164063,1.871666 -4.164063,4.164062 0,2.292396 1.871666,4.164063 4.164063,4.164063 2.292395,0 4.1625,-1.871667 4.1625,-4.164063 C 53.332813,41.871666 51.462708,40 49.170313,40 Z M 30.946875,53.298438 c -0.280701,0 -0.561349,0.105099 -0.771875,0.315624 -0.421052,0.421053 -0.421052,1.122698 0,1.543751 2.807014,2.807014 8.281233,3.040625 9.871875,3.040625 1.590642,0 7.018077,-0.186827 9.871875,-3.040625 0.421052,-0.421053 0.419672,-1.075914 0.09219,-1.543751 -0.421053,-0.421051 -1.122697,-0.421051 -1.543751,0 -1.824558,1.777777 -5.613206,2.432813 -8.373437,2.432813 -2.760232,0 -6.597224,-0.655036 -8.375,-2.432813 -0.210526,-0.210525 -0.491173,-0.315624 -0.771875,-0.315624 z" />
</svg>
