<svg
   width="80"
   height="80"
   viewBox="0 0 80 80"
   xmlns="http://www.w3.org/2000/svg">
   <path
      d="M 59.690625,0 20.3,0.00625 c -0.438079,0 -1.386714,0.01430502 -2.120313,0.040625 C 16.38409,0.11125094 14.066617,0.25356622 13.010938,0.46875 11.424859,0.79228568 9.9274888,1.2805242 8.6812496,1.9171875 7.2070914,2.6705547 5.8863938,3.6301802 4.746875,4.771875 3.6094362,5.9112338 2.6519618,7.2309105 1.9015625,8.7031248 1.2632431,9.956044 0.77512468,11.46259 0.453125,13.057813 0.24208521,14.102931 0.10226244,16.401971 0.0390625,18.185938 0.01346253,18.920681 0,19.871549 0,20.307813 l 0.0078125,39.390625 c 0,0.438047 0.01266252,1.387964 0.0390625,2.121875 0.06455994,1.795613 0.20667522,4.111516 0.421875,5.167187 0.32351968,1.586318 0.8117182,3.085043 1.4484375,4.33125 0.7531992,1.474263 1.7144111,2.794736 2.85625,3.934375 1.1391189,1.137447 2.4591715,2.093535 3.9312497,2.84375 1.2528792,0.638583 2.7594098,1.127832 4.3546878,1.45 1.045119,0.210943 3.344047,0.350623 5.128125,0.414063 h 0.0016 C 18.923542,79.987098 19.872975,80 20.309375,80 L 59.7,79.99375 c 0.437999,0 1.386474,-0.01414 2.120313,-0.04062 1.795517,-0.06438 4.11307,-0.206691 5.168749,-0.421875 1.586239,-0.323399 3.083289,-0.811637 4.329688,-1.448437 1.473999,-0.753231 2.794696,-1.713136 3.934375,-2.854688 1.137199,-1.139366 2.095153,-2.459043 2.845313,-3.931249 0.638399,-1.252919 1.126357,-2.759338 1.448437,-4.354688 0.211039,-1.045127 0.350863,-3.344151 0.414063,-5.128125 C 79.986538,61.079463 80,60.128595 80,59.692187 L 79.9922,20.301562 c 0,-0.438047 -0.01422,-1.388092 -0.04062,-2.121875 C 79.887056,16.384218 79.745021,14.068171 79.529661,13.0125 79.206328,11.426182 78.71781,9.9275928 78.08125,8.6812496 77.32789,7.2069794 76.366679,5.8866418 75.225,4.746875 74.085801,3.6095642 72.767311,2.6534762 71.295313,1.903125 70.042594,1.2648216 68.535823,0.77529268 66.940625,0.453125 65.895586,0.24204521 63.595096,0.10258244 61.810938,0.0390625 61.076538,0.01290253 60.127025,0 59.690625,0 Z M 40.2375,11.328125 c 7.626448,-0.0029 14.797306,2.96406 20.192187,8.354688 5.39502,5.39049 8.367296,12.55918 8.370313,20.196874 0,15.737018 -12.803471,28.545255 -28.540625,28.551563 -5.030491,0.0022 -9.940553,-1.312488 -14.26875,-3.810937 L 11.2,68.671875 15.16875,53.535938 C 12.894942,49.36573 11.697372,44.67075 11.695313,39.892187 v -0.0125 c 0,-15.735504 12.804897,-28.545111 28.542187,-28.551562 z M 40.2391,16.15 C 27.158072,16.155 16.515625,26.799929 16.515625,39.879687 v 0.0094 c 0.0014,4.258255 1.144761,8.434683 3.30625,12.078125 l 0.514063,0.867188 -2.354688,8.98125 8.754688,-2.396875 0.896875,0.564063 c 3.777152,2.375436 8.142521,3.62991 12.625,3.628124 C 53.337845,63.605898 63.979687,52.96008 63.979687,39.870313 63.977239,33.531894 61.505862,27.574168 57.021875,23.09375 52.537755,18.613331 46.577893,16.147531 40.239062,16.15 Z m -7.210938,9.251562 c 0.201728,0.01578 0.347511,0.04918 0.421876,0.09375 0.29746,0.178277 0.475829,0.653776 0.832812,1.367187 0.356983,0.713411 2.082375,4.220966 2.320312,4.875 0.237946,0.653888 0.356147,1.13064 -0.357812,1.60625 -0.713958,0.475603 -2.3193,1.841589 -2.795312,2.257812 -0.475884,0.416089 -0.535245,0.833464 -0.178125,1.546876 0.356838,0.713411 1.109324,3.011071 3.539062,5.735937 1.890913,2.120759 4.226667,3.552526 4.940625,3.96875 0.713958,0.416087 1.100642,0.04474 1.45625,-0.3125 0.319399,-0.320774 0.83194,-0.713603 1.248437,-1.070312 0.416506,-0.356703 0.714749,-0.476255 1.190626,-0.714063 0.47602,-0.237801 0.891454,-0.117508 1.248437,0.06094 0.356983,0.178287 3.867396,1.603927 5.295312,2.198437 1.390622,0.57901 1.203199,1.16836 1.225,1.606251 0.02074,0.415676 0.025,0.891577 0.025,1.367187 0,0.475603 -0.178365,1.247537 -0.892187,1.901562 -0.713958,0.653896 -2.43986,2.496875 -5.95,2.496875 -3.510277,0 -6.902105,-2.555789 -7.378125,-2.9125 C 38.744291,51.118298 31.540683,46.443832 28.451562,39.2875 27.71676,37.58543 27.278867,36.256277 26.95,35.220313 c -0.54267,-1.709062 -0.466441,-3.26299 -0.282813,-4.492188 0.204754,-1.370597 1.724771,-4.221121 3.390626,-4.815625 1.249397,-0.44578 2.36513,-0.558291 2.970312,-0.510938 z"
      id="path1" />
</svg>
